<?xml version="1.0" encoding="UTF-8" standalone="no"?>
<!-- Created with Inkscape (http://www.inkscape.org/) -->

<svg
   xmlns:dc="http://purl.org/dc/elements/1.1/"
   xmlns:cc="http://creativecommons.org/ns#"
   xmlns:rdf="http://www.w3.org/1999/02/22-rdf-syntax-ns#"
   xmlns:svg="http://www.w3.org/2000/svg"
   xmlns="http://www.w3.org/2000/svg"
   xmlns:sodipodi="http://sodipodi.sourceforge.net/DTD/sodipodi-0.dtd"
   xmlns:inkscape="http://www.inkscape.org/namespaces/inkscape"
   width="744.09448819"
   height="1052.3622047"
   id="svg2"
   version="1.1"
   inkscape:version="0.48.1 r9760"
   sodipodi:docname="man.svg">
  <defs
     id="defs4" />
  <sodipodi:namedview
     id="base"
     pagecolor="#ffffff"
     bordercolor="#666666"
     borderopacity="1.0"
     inkscape:pageopacity="0.0"
     inkscape:pageshadow="2"
     inkscape:zoom="1.4"
     inkscape:cx="336.51386"
     inkscape:cy="553.64968"
     inkscape:document-units="px"
     inkscape:current-layer="capa1"
     showgrid="false"
     inkscape:window-width="1680"
     inkscape:window-height="1002"
     inkscape:window-x="-2"
     inkscape:window-y="25"
     inkscape:window-maximized="1" />
  <metadata
     id="metadata7">
    <rdf:RDF>
      <cc:Work
         rdf:about="">
        <dc:format>image/svg+xml</dc:format>
        <dc:type
           rdf:resource="http://purl.org/dc/dcmitype/StillImage" />
        <dc:title></dc:title>
      </cc:Work>
    </rdf:RDF>
  </metadata>
  <g
     inkscape:label="Capa 1"
     inkscape:groupmode="layer"
     id="capa1">
    <path
       style="fill:#000000"
       d="m 374.22661,506.90353 c -12.80254,-4.56473 -16.94865,-22.05789 -7.41497,-31.28503 11.46198,-11.09342 28.70074,-6.55771 32.73851,8.61387 2.52397,9.48358 -3.33788,20.1232 -12.61875,22.90381 -5.15034,1.54308 -7.86383,1.49339 -12.70479,-0.23265 z m -155.90764,-1.6107 c -12.36475,-6.52745 -12.97053,-25.33877 -1.06216,-32.98358 4.37614,-2.80937 5.4242,-3.05885 11.50824,-2.73945 5.66562,0.29742 7.27822,0.81852 10.5,3.39299 2.0935,1.67288 4.59317,4.5846 5.55482,6.47049 2.13798,4.19283 2.32518,13.9302 0.34083,17.72856 -1.89416,3.6257 -6.45575,7.83374 -9.90438,9.13672 -4.49077,1.69673 -12.74682,1.20649 -16.93735,-1.00573 z m -31.4785,-22.68065 c -1.09971,-3.93238 -0.57422,-14.97452 0.96369,-20.25 2.09848,-7.1984 4.51326,-7.92651 29.95588,-9.03235 11.72126,-0.50946 23.26386,-1.39684 25.65022,-1.97197 7.79162,-1.87781 12.37941,-5.06174 25.31431,-17.56811 7.01071,-6.77844 14.00676,-12.9617 15.5468,-13.74058 1.91648,-0.96927 10.202,-1.81079 26.25702,-2.6668 34.0172,-1.81371 54.90226,-0.0467 62.96751,5.32747 1.96654,1.31037 6.6272,5.20365 10.35703,8.65173 3.72983,3.44808 8.45483,7.5826 10.5,9.18782 2.04517,1.60521 7.44183,6.58675 11.99257,11.07007 8.69933,8.57044 14.22592,17.49763 14.22592,22.97937 0,3.45443 -4.40613,8.32521 -8.44891,9.33988 -3.78034,0.94881 -6.40656,-0.77702 -11.05109,-7.26226 -5.00123,-6.98331 -9.4821,-10.00914 -16.83519,-11.36844 -11.4614,-2.11875 -21.35131,3.60313 -24.95778,14.43952 l -1.3694,4.11465 -41.13851,0.87203 c -22.62619,0.47961 -46.68575,0.55207 -53.4657,0.16102 l -12.32719,-0.71101 -1.71903,-4.84004 c -1.13934,-3.2079 -3.22774,-6.16807 -6.19306,-8.77825 -13.09468,-11.52639 -32.34486,-6.00727 -36.77125,10.54251 l -1.1377,4.25374 -8.77354,0 c -8.71804,0 -8.77841,-0.0174 -9.5426,-2.75 z m 137.51173,-43 0.28078,-12.25 -3.28078,-0.10008 c -22.77775,-0.69487 -37.78206,2.53105 -46.96014,10.09639 -3.87823,3.19677 -9.82064,11.48051 -9.82064,13.69002 0,1.10041 5.38169,1.29552 29.75,1.07855 l 29.75,-0.26488 0.28078,-12.25 z m 52.54254,10.91263 3.82331,-0.66263 -2.8245,-5.40218 c -3.29887,-6.30946 -9.82981,-11.32553 -17.69088,-13.58742 -6.52471,-1.87738 -17.61441,-3.46506 -24.38125,-3.49059 l -5.25,-0.0198 0,12.64734 0,12.64735 21.25,-0.73471 c 11.6875,-0.40409 22.97049,-1.0329 25.07332,-1.39735 z"
       id="path3071"
       inkscape:connector-curvature="0" />
  </g>
</svg>
