<?xml version="1.0" encoding="UTF-8" standalone="no"?>
<!-- Created with Inkscape (http://www.inkscape.org/) -->

<svg
   xmlns:dc="http://purl.org/dc/elements/1.1/"
   xmlns:cc="http://creativecommons.org/ns#"
   xmlns:rdf="http://www.w3.org/1999/02/22-rdf-syntax-ns#"
   xmlns:svg="http://www.w3.org/2000/svg"
   xmlns="http://www.w3.org/2000/svg"
   xmlns:sodipodi="http://sodipodi.sourceforge.net/DTD/sodipodi-0.dtd"
   xmlns:inkscape="http://www.inkscape.org/namespaces/inkscape"
   width="744.09448819"
   height="1052.3622047"
   id="svg2"
   version="1.1"
   inkscape:version="0.48.1 r9760"
   sodipodi:docname="carmageddon-logo.svg"
   inkscape:export-filename="/home/bmiro/fib/ia/carmageddon/doc/diagrames/figures/carmageddon-logo.png"
   inkscape:export-xdpi="90"
   inkscape:export-ydpi="90">
  <defs
     id="defs4" />
  <sodipodi:namedview
     id="base"
     pagecolor="#ffffff"
     bordercolor="#666666"
     borderopacity="1.0"
     inkscape:pageopacity="0.0"
     inkscape:pageshadow="2"
     inkscape:zoom="0.98994949"
     inkscape:cx="168.76036"
     inkscape:cy="613.60278"
     inkscape:document-units="px"
     inkscape:current-layer="capa1"
     showgrid="false"
     inkscape:window-width="1680"
     inkscape:window-height="1002"
     inkscape:window-x="-2"
     inkscape:window-y="25"
     inkscape:window-maximized="1" />
  <metadata
     id="metadata7">
    <rdf:RDF>
      <cc:Work
         rdf:about="">
        <dc:format>image/svg+xml</dc:format>
        <dc:type
           rdf:resource="http://purl.org/dc/dcmitype/StillImage" />
        <dc:title></dc:title>
      </cc:Work>
    </rdf:RDF>
  </metadata>
  <g
     inkscape:label="Capa 1"
     inkscape:groupmode="layer"
     id="capa1">
    <path
       style="fill:#000000"
       d="m 597.34278,532.04088 c -23.95148,-9.40659 -31.70818,-45.45495 -13.87221,-64.46942 21.44351,-22.86035 53.69444,-13.51356 61.24846,17.7507 4.72194,19.54292 -6.24464,41.46811 -23.60764,47.19814 -9.63546,3.17984 -14.71196,3.07744 -23.76861,-0.47942 z M 305.6648,528.72169 c -23.13245,-13.45119 -24.26577,-52.2159 -1.98713,-67.96964 8.18705,-5.78931 10.1478,-6.30342 21.53005,-5.64522 10.59946,0.61289 13.61638,1.68673 19.64381,6.99197 3.9166,3.44732 8.59307,9.44754 10.39217,13.33381 3.99981,8.64022 4.35003,28.70613 0.63763,36.53345 -3.54366,7.47152 -12.07766,16.14308 -18.52949,18.82815 -8.4015,3.49647 -23.84724,2.48623 -31.68704,-2.07252 z m -58.89119,-46.73828 c -2.05738,-8.1035 -1.07427,-30.85816 1.80291,-41.72941 3.92592,-14.83383 8.44358,-16.33425 56.04261,-18.61307 21.92858,-1.04985 43.52292,-2.87848 47.98741,-4.06366 14.57686,-3.86962 23.15988,-10.43078 47.35898,-36.20281 13.11591,-13.9684 26.20439,-26.71032 29.08555,-28.31537 3.58543,-1.99738 19.08629,-3.73152 49.12264,-5.4955 63.64068,-3.73753 102.71325,-0.0963 117.80203,10.97837 3.67908,2.7003 12.39842,10.72323 19.37633,17.82873 6.97791,7.1055 15.81762,15.62555 19.6438,18.93344 3.82618,3.30787 13.92246,13.5734 22.43616,22.81223 16.27504,17.6612 26.61439,36.05756 26.61439,47.35385 0,7.11858 -8.24315,17.15585 -15.80654,19.2468 -7.0724,1.95522 -11.98564,-1.60121 -20.6748,-14.96543 -9.35649,-14.39058 -17.73948,-20.62595 -31.49592,-23.42707 -21.44243,-4.36614 -39.94485,7.42501 -46.69197,29.75569 l -2.56193,8.4791 -76.9635,1.797 c -42.32994,0.98834 -87.34148,1.13766 -100.02567,0.33182 l -23.06218,-1.46518 -3.21603,-9.97394 c -2.13152,-6.61055 -6.03858,-12.71061 -11.58621,-18.08943 -24.49803,-23.75257 -60.51201,-12.37925 -68.79307,21.72507 l -2.12845,8.76573 -16.41387,0 c -16.31005,0 -16.42299,-0.0359 -17.85267,-5.66696 z m 257.26221,-88.61059 0.5253,-25.24372 -6.13781,-0.20624 c -42.61349,-1.43193 -70.68413,5.21577 -87.85483,20.80575 -7.25554,6.58762 -18.37283,23.65801 -18.37283,28.21118 0,2.26763 10.06827,2.6697 55.65744,2.22258 l 55.65744,-0.54583 0.52529,-25.24372 z m 98.2986,22.48777 7.15279,-1.36548 -5.28418,-11.13234 c -6.17165,-13.00198 -18.38998,-23.33865 -33.09677,-27.99975 -12.20668,-3.86874 -32.95372,-7.14049 -45.61338,-7.1931 l -9.8219,-0.0408 0,26.06251 0,26.06254 39.75531,-1.51402 c 21.86542,-0.83272 42.97407,-2.12851 46.90813,-2.87954 z"
       id="path3071"
       inkscape:connector-curvature="0" />
    <path
       style="fill:#000000"
       d="m 80.120176,534.14529 c 0,-0.71018 1.60792,-4.18787 27.404124,-59.27105 9.12774,-19.49065 16.59588,-36.03315 16.59588,-36.76111 0,-2.05712 -16.89389,-35.30136 -17.93926,-35.30136 -0.51048,0 -4.3821,4.8375 -8.6036,10.75 -4.221504,5.9125 -8.387344,11.3125 -9.257434,12 -1.10477,0.87294 -6.06406,1.25 -16.4405,1.25 -18.78792,0 -21.78759,-1.21839 -21.7439,-8.83179 0.0182,-3.16571 0.66385,-4.22241 3.9572,-6.47617 1.97609,-1.35233 4.82388,-1.69204 14.18419,-1.69204 l 11.71168,0 12.59052,-17.90249 c 6.924784,-9.84637 13.291194,-18.17137 14.147594,-18.5 0.8564,-0.32863 16.93278,-0.58156 35.7253,-0.56207 25.91883,0.0269 34.72771,0.34587 36.48559,1.32124 2.70852,1.50283 24.15589,37.14581 24.17189,40.17081 0.0196,3.71402 -2.79816,6.47251 -6.61172,6.47251 -1.92997,0 -4.30155,-0.42414 -5.27018,-0.94254 -0.96863,-0.51839 -5.77654,-7.49213 -10.68426,-15.49719 l -8.92311,-14.55466 -12.75,-0.003 c -7.0125,-0.001 -12.75,0.22819 -12.75,0.51052 0,0.28233 3.21238,6.91983 7.13862,14.75 11.05881,22.05476 11.25304,22.78432 16.70224,62.73667 l 1.70491,12.5 23.70151,0.5 c 22.04745,0.46511 23.83345,0.63957 25.59209,2.5 2.10647,2.22838 11.16063,15.20485 11.16063,15.99547 0,1.12284 -73.91331,0.50115 -76.42402,-0.6428 -3.45793,-1.57554 -4.06715,-4.17123 -6.71315,-28.60267 -2.81936,-26.03213 -3.13992,-26.32647 -10.89099,-10 -5.46196,11.50481 -13.51465,28.31869 -27.77803,58 l -8.04923,16.75 -11.072294,0 c -6.08976,0 -11.07229,-0.29991 -11.07229,-0.66648 z M 102.91154,367.82336 c -7.455844,-2.24751 -12.791364,-9.50816 -12.791364,-17.40665 0,-5.60929 1.3769,-9.3119 4.81362,-12.94422 3.934654,-4.15858 7.446864,-5.66072 13.235594,-5.66072 8.90711,0 15.61528,4.81043 18.05262,12.94554 4.15405,13.86497 -9.38635,27.26339 -23.31047,23.06605 z"
       id="path3007"
       inkscape:connector-curvature="0" />
  </g>
</svg>
