<?xml version="1.0" encoding="UTF-8" standalone="no"?>
<!-- Created with Inkscape (http://www.inkscape.org/) -->

<svg
   xmlns:dc="http://purl.org/dc/elements/1.1/"
   xmlns:cc="http://creativecommons.org/ns#"
   xmlns:rdf="http://www.w3.org/1999/02/22-rdf-syntax-ns#"
   xmlns:svg="http://www.w3.org/2000/svg"
   xmlns="http://www.w3.org/2000/svg"
   xmlns:sodipodi="http://sodipodi.sourceforge.net/DTD/sodipodi-0.dtd"
   xmlns:inkscape="http://www.inkscape.org/namespaces/inkscape"
   width="744.09448819"
   height="1052.3622047"
   id="svg3064"
   version="1.1"
   inkscape:version="0.48.1 r9760"
   sodipodi:docname="diccionarisPssDrv.svg"
   inkscape:export-filename="/home/bmiro/fib/ia/carmageddon/doc/diagrames/figures/diccionarisPssDrv.png"
   inkscape:export-xdpi="90"
   inkscape:export-ydpi="90">
  <defs
     id="defs3066">
    <marker
       inkscape:stockid="Arrow2Lend"
       orient="auto"
       refY="0.0"
       refX="0.0"
       id="Arrow2Lend"
       style="overflow:visible;">
      <path
         id="path3898"
         style="font-size:12.0;fill-rule:evenodd;stroke-width:0.62500000;stroke-linejoin:round;"
         d="M 8.7185878,4.0337352 L -2.2072895,0.016013256 L 8.7185884,-4.0017078 C 6.9730900,-1.6296469 6.9831476,1.6157441 8.7185878,4.0337352 z "
         transform="scale(1.1) rotate(180) translate(1,0)" />
    </marker>
    <marker
       inkscape:stockid="Arrow1Lend"
       orient="auto"
       refY="0.0"
       refX="0.0"
       id="Arrow1Lend"
       style="overflow:visible;">
      <path
         id="path3880"
         d="M 0.0,0.0 L 5.0,-5.0 L -12.5,0.0 L 5.0,5.0 L 0.0,0.0 z "
         style="fill-rule:evenodd;stroke:#000000;stroke-width:1.0pt;marker-start:none;"
         transform="scale(0.8) rotate(180) translate(12.5,0)" />
    </marker>
  </defs>
  <sodipodi:namedview
     id="base"
     pagecolor="#ffffff"
     bordercolor="#666666"
     borderopacity="1.0"
     inkscape:pageopacity="0.0"
     inkscape:pageshadow="2"
     inkscape:zoom="0.98994949"
     inkscape:cx="138.60092"
     inkscape:cy="670.33734"
     inkscape:document-units="px"
     inkscape:current-layer="capa1"
     showgrid="false"
     showguides="true"
     inkscape:guide-bbox="true"
     inkscape:window-width="1680"
     inkscape:window-height="1002"
     inkscape:window-x="-2"
     inkscape:window-y="25"
     inkscape:window-maximized="1" />
  <metadata
     id="metadata3069">
    <rdf:RDF>
      <cc:Work
         rdf:about="">
        <dc:format>image/svg+xml</dc:format>
        <dc:type
           rdf:resource="http://purl.org/dc/dcmitype/StillImage" />
        <dc:title></dc:title>
      </cc:Work>
    </rdf:RDF>
  </metadata>
  <g
     inkscape:label="Capa 1"
     inkscape:groupmode="layer"
     id="capa1">
    <rect
       style="fill:none;stroke:#000000;stroke-width:2.97373915;stroke-miterlimit:4;stroke-opacity:1;stroke-dasharray:none"
       id="rect3072"
       width="93.099045"
       height="145.92366"
       x="101.94588"
       y="220.7892" />
    <rect
       y="385.29718"
       x="101.94588"
       height="168.65204"
       width="93.099045"
       id="rect3842"
       style="fill:none;stroke:#000000;stroke-width:2.97373915;stroke-miterlimit:4;stroke-opacity:1;stroke-dasharray:none" />
    <rect
       y="256.59375"
       x="101.94589"
       height="28.251114"
       width="93.09903"
       id="rect3848"
       style="fill:none;stroke:#000000;stroke-width:2.97373915;stroke-miterlimit:4;stroke-opacity:1;stroke-dasharray:none" />
    <rect
       style="fill:none;stroke:#000000;stroke-width:2.97373915;stroke-miterlimit:4;stroke-opacity:1;stroke-dasharray:none"
       id="rect3850"
       width="93.09903"
       height="28.251114"
       x="101.94589"
       y="426.59375" />
    <text
       xml:space="preserve"
       style="font-size:21.11223793px;font-style:normal;font-weight:normal;line-height:125%;letter-spacing:0px;word-spacing:0px;fill:#000000;fill-opacity:1;stroke:none;font-family:Bitstream Vera Sans"
       x="109.71088"
       y="278.84393"
       id="text3852"
       sodipodi:linespacing="125%"><tspan
         sodipodi:role="line"
         id="tspan3854"
         x="109.71088"
         y="278.84393">D-2914</tspan></text>
    <text
       sodipodi:linespacing="125%"
       id="text3856"
       y="448.70108"
       x="112.21088"
       style="font-size:21.11223793px;font-style:normal;font-weight:normal;line-height:125%;letter-spacing:0px;word-spacing:0px;fill:#000000;fill-opacity:1;stroke:none;font-family:Bitstream Vera Sans"
       xml:space="preserve"><tspan
         y="448.70108"
         x="112.21088"
         id="tspan3858"
         sodipodi:role="line">P-9437</tspan></text>
    <rect
       y="488.59375"
       x="101.94589"
       height="28.251114"
       width="93.09903"
       id="rect3860"
       style="fill:none;stroke:#000000;stroke-width:2.97373915;stroke-miterlimit:4;stroke-opacity:1;stroke-dasharray:none" />
    <text
       xml:space="preserve"
       style="font-size:21.11223793px;font-style:normal;font-weight:normal;line-height:125%;letter-spacing:0px;word-spacing:0px;fill:#000000;fill-opacity:1;stroke:none;font-family:Bitstream Vera Sans"
       x="112.21088"
       y="510.70108"
       id="text3862"
       sodipodi:linespacing="125%"><tspan
         sodipodi:role="line"
         id="tspan3864"
         x="112.21088"
         y="510.70108">P-8462</tspan></text>
    <path
       inkscape:connector-curvature="0"
       id="path3872"
       d="m 201.00988,504.32593 98.88357,11.00028 -26.47054,14.11073 109.10116,11.53386"
       style="fill:none;stroke:#000000;stroke-width:2;stroke-linecap:butt;stroke-linejoin:miter;stroke-miterlimit:4;stroke-opacity:1;stroke-dasharray:none;marker-end:url(#Arrow2Lend)"
       sodipodi:nodetypes="cccc" />
    <path
       style="fill:none;stroke:#000000;stroke-width:2;stroke-linecap:butt;stroke-linejoin:miter;stroke-miterlimit:4;stroke-opacity:1;stroke-dasharray:none;marker-end:url(#Arrow2Lend)"
       d="m 203.12113,440.2854 86.87045,-25.23484 -10.07044,19.83647 106.9561,-33.01061"
       id="path4504"
       inkscape:connector-curvature="0"
       sodipodi:nodetypes="cccc" />
    <path
       inkscape:connector-curvature="0"
       id="path4506"
       d="m 200.31428,271.46814 115.046,-16.05105 -17.41056,18.4207 96.97932,-19.61508"
       style="fill:none;stroke:#000000;stroke-width:2;stroke-linecap:butt;stroke-linejoin:miter;stroke-miterlimit:4;stroke-opacity:1;stroke-dasharray:none;marker-end:url(#Arrow2Lend)"
       sodipodi:nodetypes="cccc" />
    <g
       id="capa1-4"
       inkscape:label="Capa 1"
       transform="matrix(0.33730757,0,0,0.33730757,299.45612,245.40153)"
       style="fill:#0000ff">
      <path
         inkscape:connector-curvature="0"
         id="path3039"
         d="m 367.5099,581.58994 c -1.17313,-0.95027 -2.63563,-2.71068 -3.25,-3.91202 -0.79239,-1.54944 -1.11704,-23.2743 -1.11704,-74.75 0,-71.89907 -0.0184,-72.56574 -2,-72.56574 -1.95226,0 -2,0.66667 -2,27.92742 l 0,27.92742 -2.63486,2.07258 c -3.56633,2.80527 -7.87417,2.65446 -10.91059,-0.38197 l -2.45455,-2.45454 0.01,-32.79546 c 0.01,-32.30462 0.0449,-32.87089 2.3571,-37.83632 2.51006,-5.39031 7.13434,-9.92461 12.35101,-12.11067 2.41543,-1.0122 9.59289,-1.34846 28.78322,-1.34846 25.24746,0 25.62635,0.0309 30.4701,2.48542 2.69761,1.36699 6.04883,3.98539 7.44714,5.81867 5.27309,6.91338 5.58163,9.33823 5.58163,43.86709 l 0,31.91973 -2.45455,2.45454 c -3.24779,3.2478 -8.39206,3.31118 -11.37114,0.1401 -2.12433,-2.26125 -2.17431,-2.95091 -2.17431,-30 0,-27.01888 -0.0482,-27.68555 -2,-27.68555 -1.98188,0 -2,0.66667 -2,73.57692 l 0,73.57693 -2.92308,2.92307 c -4.14753,4.14754 -10.67185,4.15002 -15.31114,0.006 l -3.26578,-2.91744 -0.28024,-44.08274 c -0.23881,-37.56507 -0.49307,-44.08274 -1.71976,-44.08274 -1.22669,0 -1.48095,6.51767 -1.71976,44.08274 l -0.28024,44.08274 -3.26578,2.91726 c -3.87012,3.45712 -10.35211,3.99234 -13.86718,1.14502 z M 380.76763,395.9383 c -2.13138,-0.7846 -5.38541,-2.89026 -7.23117,-4.67924 -11.59727,-11.24052 -3.2495,-31.18259 13.05306,-31.18259 14.01561,0 22.72165,14.04368 16.57606,26.73878 -3.82709,7.90571 -14.21304,12.13608 -22.39795,9.12305 z"
         style="fill:#0000ff" />
      <path
         style="fill:#0000ff"
         d="m 367.5099,581.58994 c -1.17313,-0.95027 -2.63563,-2.71068 -3.25,-3.91202 -0.79239,-1.54944 -1.11704,-23.2743 -1.11704,-74.75 0,-71.89907 -0.0184,-72.56574 -2,-72.56574 -1.95226,0 -2,0.66667 -2,27.92742 l 0,27.92742 -2.63486,2.07258 c -3.56633,2.80527 -7.87417,2.65446 -10.91059,-0.38197 l -2.45455,-2.45454 0.01,-32.79546 c 0.01,-32.30462 0.0449,-32.87089 2.3571,-37.83632 2.51006,-5.39031 7.13434,-9.92461 12.35101,-12.11067 2.41543,-1.0122 9.59289,-1.34846 28.78322,-1.34846 25.24746,0 25.62635,0.0309 30.4701,2.48542 2.69761,1.36699 6.04883,3.98539 7.44714,5.81867 5.27309,6.91338 5.58163,9.33823 5.58163,43.86709 l 0,31.91973 -2.45455,2.45454 c -3.24779,3.2478 -8.39206,3.31118 -11.37114,0.1401 -2.12433,-2.26125 -2.17431,-2.95091 -2.17431,-30 0,-27.01888 -0.0482,-27.68555 -2,-27.68555 -1.98188,0 -2,0.66667 -2,73.57692 l 0,73.57693 -2.92308,2.92307 c -4.14753,4.14754 -10.67185,4.15002 -15.31114,0.006 l -3.26578,-2.91744 -0.28024,-44.08274 c -0.23881,-37.56507 -0.49307,-44.08274 -1.71976,-44.08274 -1.22669,0 -1.48095,6.51767 -1.71976,44.08274 l -0.28024,44.08274 -3.26578,2.91726 c -3.87012,3.45712 -10.35211,3.99234 -13.86718,1.14502 z M 380.76763,395.9383 c -2.13138,-0.7846 -5.38541,-2.89026 -7.23117,-4.67924 -11.59727,-11.24052 -3.2495,-31.18259 13.05306,-31.18259 14.01561,0 22.72165,14.04368 16.57606,26.73878 -3.82709,7.90571 -14.21304,12.13608 -22.39795,9.12305 z"
         id="path4574"
         inkscape:connector-curvature="0" />
      <path
         inkscape:connector-curvature="0"
         id="path4576"
         d="m 367.5099,581.58994 c -1.17313,-0.95027 -2.63563,-2.71068 -3.25,-3.91202 -0.79239,-1.54944 -1.11704,-23.2743 -1.11704,-74.75 0,-71.89907 -0.0184,-72.56574 -2,-72.56574 -1.95226,0 -2,0.66667 -2,27.92742 l 0,27.92742 -2.63486,2.07258 c -3.56633,2.80527 -7.87417,2.65446 -10.91059,-0.38197 l -2.45455,-2.45454 0.01,-32.79546 c 0.01,-32.30462 0.0449,-32.87089 2.3571,-37.83632 2.51006,-5.39031 7.13434,-9.92461 12.35101,-12.11067 2.41543,-1.0122 9.59289,-1.34846 28.78322,-1.34846 25.24746,0 25.62635,0.0309 30.4701,2.48542 2.69761,1.36699 6.04883,3.98539 7.44714,5.81867 5.27309,6.91338 5.58163,9.33823 5.58163,43.86709 l 0,31.91973 -2.45455,2.45454 c -3.24779,3.2478 -8.39206,3.31118 -11.37114,0.1401 -2.12433,-2.26125 -2.17431,-2.95091 -2.17431,-30 0,-27.01888 -0.0482,-27.68555 -2,-27.68555 -1.98188,0 -2,0.66667 -2,73.57692 l 0,73.57693 -2.92308,2.92307 c -4.14753,4.14754 -10.67185,4.15002 -15.31114,0.006 l -3.26578,-2.91744 -0.28024,-44.08274 c -0.23881,-37.56507 -0.49307,-44.08274 -1.71976,-44.08274 -1.22669,0 -1.48095,6.51767 -1.71976,44.08274 l -0.28024,44.08274 -3.26578,2.91726 c -3.87012,3.45712 -10.35211,3.99234 -13.86718,1.14502 z M 380.76763,395.9383 c -2.13138,-0.7846 -5.38541,-2.89026 -7.23117,-4.67924 -11.59727,-11.24052 -3.2495,-31.18259 13.05306,-31.18259 14.01561,0 22.72165,14.04368 16.57606,26.73878 -3.82709,7.90571 -14.21304,12.13608 -22.39795,9.12305 z"
         style="fill:#0000ff" />
    </g>
    <g
       id="capa1-1"
       inkscape:label="Capa 1"
       transform="matrix(0.65080247,0,0,0.65080247,289.36766,-60.50668)">
      <path
         inkscape:connector-curvature="0"
         id="path3071"
         d="m 374.22661,506.90353 c -12.80254,-4.56473 -16.94865,-22.05789 -7.41497,-31.28503 11.46198,-11.09342 28.70074,-6.55771 32.73851,8.61387 2.52397,9.48358 -3.33788,20.1232 -12.61875,22.90381 -5.15034,1.54308 -7.86383,1.49339 -12.70479,-0.23265 z m -155.90764,-1.6107 c -12.36475,-6.52745 -12.97053,-25.33877 -1.06216,-32.98358 4.37614,-2.80937 5.4242,-3.05885 11.50824,-2.73945 5.66562,0.29742 7.27822,0.81852 10.5,3.39299 2.0935,1.67288 4.59317,4.5846 5.55482,6.47049 2.13798,4.19283 2.32518,13.9302 0.34083,17.72856 -1.89416,3.6257 -6.45575,7.83374 -9.90438,9.13672 -4.49077,1.69673 -12.74682,1.20649 -16.93735,-1.00573 z m -31.4785,-22.68065 c -1.09971,-3.93238 -0.57422,-14.97452 0.96369,-20.25 2.09848,-7.1984 4.51326,-7.92651 29.95588,-9.03235 11.72126,-0.50946 23.26386,-1.39684 25.65022,-1.97197 7.79162,-1.87781 12.37941,-5.06174 25.31431,-17.56811 7.01071,-6.77844 14.00676,-12.9617 15.5468,-13.74058 1.91648,-0.96927 10.202,-1.81079 26.25702,-2.6668 34.0172,-1.81371 54.90226,-0.0467 62.96751,5.32747 1.96654,1.31037 6.6272,5.20365 10.35703,8.65173 3.72983,3.44808 8.45483,7.5826 10.5,9.18782 2.04517,1.60521 7.44183,6.58675 11.99257,11.07007 8.69933,8.57044 14.22592,17.49763 14.22592,22.97937 0,3.45443 -4.40613,8.32521 -8.44891,9.33988 -3.78034,0.94881 -6.40656,-0.77702 -11.05109,-7.26226 -5.00123,-6.98331 -9.4821,-10.00914 -16.83519,-11.36844 -11.4614,-2.11875 -21.35131,3.60313 -24.95778,14.43952 l -1.3694,4.11465 -41.13851,0.87203 c -22.62619,0.47961 -46.68575,0.55207 -53.4657,0.16102 l -12.32719,-0.71101 -1.71903,-4.84004 c -1.13934,-3.2079 -3.22774,-6.16807 -6.19306,-8.77825 -13.09468,-11.52639 -32.34486,-6.00727 -36.77125,10.54251 l -1.1377,4.25374 -8.77354,0 c -8.71804,0 -8.77841,-0.0174 -9.5426,-2.75 z m 137.51173,-43 0.28078,-12.25 -3.28078,-0.10008 c -22.77775,-0.69487 -37.78206,2.53105 -46.96014,10.09639 -3.87823,3.19677 -9.82064,11.48051 -9.82064,13.69002 0,1.10041 5.38169,1.29552 29.75,1.07855 l 29.75,-0.26488 0.28078,-12.25 z m 52.54254,10.91263 3.82331,-0.66263 -2.8245,-5.40218 c -3.29887,-6.30946 -9.82981,-11.32553 -17.69088,-13.58742 -6.52471,-1.87738 -17.61441,-3.46506 -24.38125,-3.49059 l -5.25,-0.0198 0,12.64734 0,12.64735 21.25,-0.73471 c 11.6875,-0.40409 22.97049,-1.0329 25.07332,-1.39735 z"
         style="fill:#000000" />
    </g>
    <text
       sodipodi:linespacing="125%"
       id="text4528"
       y="412.52924"
       x="483.54343"
       style="font-size:21.11223793px;font-style:normal;font-weight:normal;line-height:125%;letter-spacing:0px;word-spacing:0px;fill:#000000;fill-opacity:1;stroke:none;font-family:Bitstream Vera Sans"
       xml:space="preserve"><tspan
         y="412.52924"
         x="483.54343"
         id="tspan4530"
         sodipodi:role="line">D-2914</tspan></text>
    <text
       xml:space="preserve"
       style="font-size:94.04819489px;font-style:normal;font-weight:normal;line-height:125%;letter-spacing:0px;word-spacing:0px;fill:#000000;fill-opacity:1;stroke:none;font-family:Bitstream Vera Sans"
       x="474.10205"
       y="412.29245"
       id="text4536"
       sodipodi:linespacing="125%"
       transform="scale(0.9557038,1.0463493)"><tspan
         sodipodi:role="line"
         id="tspan4538"
         x="474.10205"
         y="412.29245">,</tspan></text>
    <text
       xml:space="preserve"
       style="font-size:94.04819489px;font-style:normal;font-weight:normal;line-height:125%;letter-spacing:0px;word-spacing:0px;fill:#000000;fill-opacity:1;stroke:none;font-family:Bitstream Vera Sans"
       x="577.95453"
       y="415.82068"
       id="text4540"
       sodipodi:linespacing="125%"
       transform="scale(0.9557038,1.0463493)"><tspan
         sodipodi:role="line"
         id="tspan4542"
         x="577.95453"
         y="415.82068">)</tspan></text>
    <text
       xml:space="preserve"
       style="font-size:94.04819489px;font-style:normal;font-weight:normal;line-height:125%;letter-spacing:0px;word-spacing:0px;fill:#000000;fill-opacity:1;stroke:none;font-family:Bitstream Vera Sans"
       x="404.77194"
       y="414.79544"
       id="text4544"
       sodipodi:linespacing="125%"
       transform="scale(0.9557038,1.0463493)"><tspan
         sodipodi:role="line"
         id="tspan4546"
         x="404.77194"
         y="414.79544">(</tspan></text>
    <g
       transform="matrix(0.33730757,0,0,0.33730757,300.46627,385.81273)"
       inkscape:label="Capa 1"
       id="g4554"
       style="fill:#ff0000">
      <path
         style="fill:#ff0000"
         d="m 367.5099,581.58994 c -1.17313,-0.95027 -2.63563,-2.71068 -3.25,-3.91202 -0.79239,-1.54944 -1.11704,-23.2743 -1.11704,-74.75 0,-71.89907 -0.0184,-72.56574 -2,-72.56574 -1.95226,0 -2,0.66667 -2,27.92742 l 0,27.92742 -2.63486,2.07258 c -3.56633,2.80527 -7.87417,2.65446 -10.91059,-0.38197 l -2.45455,-2.45454 0.01,-32.79546 c 0.01,-32.30462 0.0449,-32.87089 2.3571,-37.83632 2.51006,-5.39031 7.13434,-9.92461 12.35101,-12.11067 2.41543,-1.0122 9.59289,-1.34846 28.78322,-1.34846 25.24746,0 25.62635,0.0309 30.4701,2.48542 2.69761,1.36699 6.04883,3.98539 7.44714,5.81867 5.27309,6.91338 5.58163,9.33823 5.58163,43.86709 l 0,31.91973 -2.45455,2.45454 c -3.24779,3.2478 -8.39206,3.31118 -11.37114,0.1401 -2.12433,-2.26125 -2.17431,-2.95091 -2.17431,-30 0,-27.01888 -0.0482,-27.68555 -2,-27.68555 -1.98188,0 -2,0.66667 -2,73.57692 l 0,73.57693 -2.92308,2.92307 c -4.14753,4.14754 -10.67185,4.15002 -15.31114,0.006 l -3.26578,-2.91744 -0.28024,-44.08274 c -0.23881,-37.56507 -0.49307,-44.08274 -1.71976,-44.08274 -1.22669,0 -1.48095,6.51767 -1.71976,44.08274 l -0.28024,44.08274 -3.26578,2.91726 c -3.87012,3.45712 -10.35211,3.99234 -13.86718,1.14502 z M 380.76763,395.9383 c -2.13138,-0.7846 -5.38541,-2.89026 -7.23117,-4.67924 -11.59727,-11.24052 -3.2495,-31.18259 13.05306,-31.18259 14.01561,0 22.72165,14.04368 16.57606,26.73878 -3.82709,7.90571 -14.21304,12.13608 -22.39795,9.12305 z"
         id="path4556"
         inkscape:connector-curvature="0" />
    </g>
    <text
       xml:space="preserve"
       style="font-size:21.11223793px;font-style:normal;font-weight:normal;line-height:125%;letter-spacing:0px;word-spacing:0px;fill:#000000;fill-opacity:1;stroke:none;font-family:Bitstream Vera Sans"
       x="484.55359"
       y="552.94043"
       id="text4558"
       sodipodi:linespacing="125%"><tspan
         sodipodi:role="line"
         id="tspan4560"
         x="484.55359"
         y="552.94043">D-2914</tspan></text>
    <text
       transform="scale(0.9557038,1.0463493)"
       sodipodi:linespacing="125%"
       id="text4562"
       y="546.48395"
       x="475.15903"
       style="font-size:94.04819489px;font-style:normal;font-weight:normal;line-height:125%;letter-spacing:0px;word-spacing:0px;fill:#000000;fill-opacity:1;stroke:none;font-family:Bitstream Vera Sans"
       xml:space="preserve"><tspan
         y="546.48395"
         x="475.15903"
         id="tspan4564"
         sodipodi:role="line">,</tspan></text>
    <text
       transform="scale(0.9557038,1.0463493)"
       sodipodi:linespacing="125%"
       id="text4566"
       y="550.01221"
       x="579.01147"
       style="font-size:94.04819489px;font-style:normal;font-weight:normal;line-height:125%;letter-spacing:0px;word-spacing:0px;fill:#000000;fill-opacity:1;stroke:none;font-family:Bitstream Vera Sans"
       xml:space="preserve"><tspan
         y="550.01221"
         x="579.01147"
         id="tspan4568"
         sodipodi:role="line">)</tspan></text>
    <text
       transform="scale(0.9557038,1.0463493)"
       sodipodi:linespacing="125%"
       id="text4570"
       y="548.98694"
       x="405.82892"
       style="font-size:94.04819489px;font-style:normal;font-weight:normal;line-height:125%;letter-spacing:0px;word-spacing:0px;fill:#000000;fill-opacity:1;stroke:none;font-family:Bitstream Vera Sans"
       xml:space="preserve"><tspan
         y="548.98694"
         x="405.82892"
         id="tspan4572"
         sodipodi:role="line">(</tspan></text>
    <g
       style="fill:#0000ff"
       transform="matrix(0.33730757,0,0,0.33730757,393.40031,99.15022)"
       inkscape:label="Capa 1"
       id="g4581">
      <path
         style="fill:#0000ff"
         d="m 373.53646,391.25906 c -11.59727,-11.24052 -3.2495,-31.18259 13.05306,-31.18259 14.01561,0 22.72165,14.04368 16.57606,26.73878 -8.75313,11.18572 -19.88464,12.46933 -29.62912,4.44381 z"
         id="path4583"
         inkscape:connector-curvature="0"
         sodipodi:nodetypes="cscc" />
      <path
         inkscape:connector-curvature="0"
         id="path4585"
         d="m 380.76763,395.9383 c -2.13138,-0.7846 -5.38541,-2.89026 -7.23117,-4.67924 -11.59727,-11.24052 -3.2495,-31.18259 13.05306,-31.18259 14.01561,0 22.72165,14.04368 16.57606,26.73878 -3.82709,7.90571 -14.21304,12.13608 -22.39795,9.12305 z"
         style="fill:#0000ff"
         sodipodi:nodetypes="sssss" />
      <path
         style="fill:#0000ff"
         d="m 380.76763,395.9383 c -2.13138,-0.7846 -5.38541,-2.89026 -7.23117,-4.67924 -11.59727,-11.24052 -3.2495,-31.18259 13.05306,-31.18259 14.01561,0 22.72165,14.04368 16.57606,26.73878 -3.82709,7.90571 -14.21304,12.13608 -22.39795,9.12305 z"
         id="path4587"
         inkscape:connector-curvature="0"
         sodipodi:nodetypes="sssss" />
    </g>
    <g
       style="fill:#ff0000"
       id="g4589"
       inkscape:label="Capa 1"
       transform="matrix(0.33730757,0,0,0.33730757,379.76324,98.64513)">
      <path
         inkscape:connector-curvature="0"
         id="path4591"
         d="m 380.76763,395.9383 c -2.13138,-0.7846 -5.38541,-2.89026 -7.23117,-4.67924 -11.59727,-11.24052 -3.2495,-31.18259 13.05306,-31.18259 14.01561,0 22.72165,14.04368 16.57606,26.73878 -3.82709,7.90571 -14.21304,12.13608 -22.39795,9.12305 z"
         style="fill:#ff0000"
         sodipodi:nodetypes="sssss" />
    </g>
    <g
       transform="matrix(0.33730757,0,0,0.33730757,354.50943,98.64514)"
       inkscape:label="Capa 1"
       id="g4593"
       style="fill:#000000">
      <path
         sodipodi:nodetypes="sssss"
         style="fill:#000000"
         d="m 380.76763,395.9383 c -2.13138,-0.7846 -5.38541,-2.89026 -7.23117,-4.67924 -11.59727,-11.24052 -3.2495,-31.18259 13.05306,-31.18259 14.01561,0 22.72165,14.04368 16.57606,26.73878 -3.82709,7.90571 -14.21304,12.13608 -22.39795,9.12305 z"
         id="path4595"
         inkscape:connector-curvature="0" />
    </g>
    <g
       transform="matrix(0.31092888,0,0,0.33083463,-36.679173,85.953917)"
       inkscape:label="Capa 1"
       id="g4597">
      <path
         style="fill:#000000"
         d="m 374.22661,506.90353 c -12.80254,-4.56473 -16.94865,-22.05789 -7.41497,-31.28503 11.46198,-11.09342 28.70074,-6.55771 32.73851,8.61387 2.52397,9.48358 -3.33788,20.1232 -12.61875,22.90381 -5.15034,1.54308 -7.86383,1.49339 -12.70479,-0.23265 z m -155.90764,-1.6107 c -12.36475,-6.52745 -12.97053,-25.33877 -1.06216,-32.98358 4.37614,-2.80937 5.4242,-3.05885 11.50824,-2.73945 5.66562,0.29742 7.27822,0.81852 10.5,3.39299 2.0935,1.67288 4.59317,4.5846 5.55482,6.47049 2.13798,4.19283 2.32518,13.9302 0.34083,17.72856 -1.89416,3.6257 -6.45575,7.83374 -9.90438,9.13672 -4.49077,1.69673 -12.74682,1.20649 -16.93735,-1.00573 z m -31.4785,-22.68065 c -1.09971,-3.93238 -0.57422,-14.97452 0.96369,-20.25 2.09848,-7.1984 4.51326,-7.92651 29.95588,-9.03235 11.72126,-0.50946 23.26386,-1.39684 25.65022,-1.97197 7.79162,-1.87781 12.37941,-5.06174 25.31431,-17.56811 7.01071,-6.77844 14.00676,-12.9617 15.5468,-13.74058 1.91648,-0.96927 10.202,-1.81079 26.25702,-2.6668 34.0172,-1.81371 54.90226,-0.0467 62.96751,5.32747 1.96654,1.31037 6.6272,5.20365 10.35703,8.65173 3.72983,3.44808 8.45483,7.5826 10.5,9.18782 2.04517,1.60521 7.44183,6.58675 11.99257,11.07007 8.69933,8.57044 14.22592,17.49763 14.22592,22.97937 0,3.45443 -4.40613,8.32521 -8.44891,9.33988 -3.78034,0.94881 -6.40656,-0.77702 -11.05109,-7.26226 -5.00123,-6.98331 -9.4821,-10.00914 -16.83519,-11.36844 -11.4614,-2.11875 -21.35131,3.60313 -24.95778,14.43952 l -1.3694,4.11465 -41.13851,0.87203 c -22.62619,0.47961 -46.68575,0.55207 -53.4657,0.16102 l -12.32719,-0.71101 -1.71903,-4.84004 c -1.13934,-3.2079 -3.22774,-6.16807 -6.19306,-8.77825 -13.09468,-11.52639 -32.34486,-6.00727 -36.77125,10.54251 l -1.1377,4.25374 -8.77354,0 c -8.71804,0 -8.77841,-0.0174 -9.5426,-2.75 z m 137.51173,-43 0.28078,-12.25 -3.28078,-0.10008 c -22.77775,-0.69487 -37.78206,2.53105 -46.96014,10.09639 -3.87823,3.19677 -9.82064,11.48051 -9.82064,13.69002 0,1.10041 5.38169,1.29552 29.75,1.07855 l 29.75,-0.26488 0.28078,-12.25 z m 52.54254,10.91263 3.82331,-0.66263 -2.8245,-5.40218 c -3.29887,-6.30946 -9.82981,-11.32553 -17.69088,-13.58742 -6.52471,-1.87738 -17.61441,-3.46506 -24.38125,-3.49059 l -5.25,-0.0198 0,12.64734 0,12.64735 21.25,-0.73471 c 11.6875,-0.40409 22.97049,-1.0329 25.07332,-1.39735 z"
         id="path4599"
         inkscape:connector-curvature="0" />
    </g>
    <g
       style="fill:#000000"
       transform="matrix(0.24442019,0,0,0.24442019,-16.604325,298.04098)"
       inkscape:label="Capa 1"
       id="g4613">
      <path
         style="fill:#000000"
         d="m 367.5099,581.58994 c -1.17313,-0.95027 -2.63563,-2.71068 -3.25,-3.91202 -0.79239,-1.54944 -1.11704,-23.2743 -1.11704,-74.75 0,-71.89907 -0.0184,-72.56574 -2,-72.56574 -1.95226,0 -2,0.66667 -2,27.92742 l 0,27.92742 -2.63486,2.07258 c -3.56633,2.80527 -7.87417,2.65446 -10.91059,-0.38197 l -2.45455,-2.45454 0.01,-32.79546 c 0.01,-32.30462 0.0449,-32.87089 2.3571,-37.83632 2.51006,-5.39031 7.13434,-9.92461 12.35101,-12.11067 2.41543,-1.0122 9.59289,-1.34846 28.78322,-1.34846 25.24746,0 25.62635,0.0309 30.4701,2.48542 2.69761,1.36699 6.04883,3.98539 7.44714,5.81867 5.27309,6.91338 5.58163,9.33823 5.58163,43.86709 l 0,31.91973 -2.45455,2.45454 c -3.24779,3.2478 -8.39206,3.31118 -11.37114,0.1401 -2.12433,-2.26125 -2.17431,-2.95091 -2.17431,-30 0,-27.01888 -0.0482,-27.68555 -2,-27.68555 -1.98188,0 -2,0.66667 -2,73.57692 l 0,73.57693 -2.92308,2.92307 c -4.14753,4.14754 -10.67185,4.15002 -15.31114,0.006 l -3.26578,-2.91744 -0.28024,-44.08274 c -0.23881,-37.56507 -0.49307,-44.08274 -1.71976,-44.08274 -1.22669,0 -1.48095,6.51767 -1.71976,44.08274 l -0.28024,44.08274 -3.26578,2.91726 c -3.87012,3.45712 -10.35211,3.99234 -13.86718,1.14502 z M 380.76763,395.9383 c -2.13138,-0.7846 -5.38541,-2.89026 -7.23117,-4.67924 -11.59727,-11.24052 -3.2495,-31.18259 13.05306,-31.18259 14.01561,0 22.72165,14.04368 16.57606,26.73878 -3.82709,7.90571 -14.21304,12.13608 -22.39795,9.12305 z"
         id="path4615"
         inkscape:connector-curvature="0" />
      <path
         inkscape:connector-curvature="0"
         id="path4617"
         d="m 367.5099,581.58994 c -1.17313,-0.95027 -2.63563,-2.71068 -3.25,-3.91202 -0.79239,-1.54944 -1.11704,-23.2743 -1.11704,-74.75 0,-71.89907 -0.0184,-72.56574 -2,-72.56574 -1.95226,0 -2,0.66667 -2,27.92742 l 0,27.92742 -2.63486,2.07258 c -3.56633,2.80527 -7.87417,2.65446 -10.91059,-0.38197 l -2.45455,-2.45454 0.01,-32.79546 c 0.01,-32.30462 0.0449,-32.87089 2.3571,-37.83632 2.51006,-5.39031 7.13434,-9.92461 12.35101,-12.11067 2.41543,-1.0122 9.59289,-1.34846 28.78322,-1.34846 25.24746,0 25.62635,0.0309 30.4701,2.48542 2.69761,1.36699 6.04883,3.98539 7.44714,5.81867 5.27309,6.91338 5.58163,9.33823 5.58163,43.86709 l 0,31.91973 -2.45455,2.45454 c -3.24779,3.2478 -8.39206,3.31118 -11.37114,0.1401 -2.12433,-2.26125 -2.17431,-2.95091 -2.17431,-30 0,-27.01888 -0.0482,-27.68555 -2,-27.68555 -1.98188,0 -2,0.66667 -2,73.57692 l 0,73.57693 -2.92308,2.92307 c -4.14753,4.14754 -10.67185,4.15002 -15.31114,0.006 l -3.26578,-2.91744 -0.28024,-44.08274 c -0.23881,-37.56507 -0.49307,-44.08274 -1.71976,-44.08274 -1.22669,0 -1.48095,6.51767 -1.71976,44.08274 l -0.28024,44.08274 -3.26578,2.91726 c -3.87012,3.45712 -10.35211,3.99234 -13.86718,1.14502 z M 380.76763,395.9383 c -2.13138,-0.7846 -5.38541,-2.89026 -7.23117,-4.67924 -11.59727,-11.24052 -3.2495,-31.18259 13.05306,-31.18259 14.01561,0 22.72165,14.04368 16.57606,26.73878 -3.82709,7.90571 -14.21304,12.13608 -22.39795,9.12305 z"
         style="fill:#000000" />
      <path
         style="fill:#000000"
         d="m 367.5099,581.58994 c -1.17313,-0.95027 -2.63563,-2.71068 -3.25,-3.91202 -0.79239,-1.54944 -1.11704,-23.2743 -1.11704,-74.75 0,-71.89907 -0.0184,-72.56574 -2,-72.56574 -1.95226,0 -2,0.66667 -2,27.92742 l 0,27.92742 -2.63486,2.07258 c -3.56633,2.80527 -7.87417,2.65446 -10.91059,-0.38197 l -2.45455,-2.45454 0.01,-32.79546 c 0.01,-32.30462 0.0449,-32.87089 2.3571,-37.83632 2.51006,-5.39031 7.13434,-9.92461 12.35101,-12.11067 2.41543,-1.0122 9.59289,-1.34846 28.78322,-1.34846 25.24746,0 25.62635,0.0309 30.4701,2.48542 2.69761,1.36699 6.04883,3.98539 7.44714,5.81867 5.27309,6.91338 5.58163,9.33823 5.58163,43.86709 l 0,31.91973 -2.45455,2.45454 c -3.24779,3.2478 -8.39206,3.31118 -11.37114,0.1401 -2.12433,-2.26125 -2.17431,-2.95091 -2.17431,-30 0,-27.01888 -0.0482,-27.68555 -2,-27.68555 -1.98188,0 -2,0.66667 -2,73.57692 l 0,73.57693 -2.92308,2.92307 c -4.14753,4.14754 -10.67185,4.15002 -15.31114,0.006 l -3.26578,-2.91744 -0.28024,-44.08274 c -0.23881,-37.56507 -0.49307,-44.08274 -1.71976,-44.08274 -1.22669,0 -1.48095,6.51767 -1.71976,44.08274 l -0.28024,44.08274 -3.26578,2.91726 c -3.87012,3.45712 -10.35211,3.99234 -13.86718,1.14502 z M 380.76763,395.9383 c -2.13138,-0.7846 -5.38541,-2.89026 -7.23117,-4.67924 -11.59727,-11.24052 -3.2495,-31.18259 13.05306,-31.18259 14.01561,0 22.72165,14.04368 16.57606,26.73878 -3.82709,7.90571 -14.21304,12.13608 -22.39795,9.12305 z"
         id="path4619"
         inkscape:connector-curvature="0" />
    </g>
    <path
       style="fill:none;stroke:#000000;stroke-width:2;stroke-linecap:butt;stroke-linejoin:miter;stroke-miterlimit:4;stroke-opacity:1;stroke-dasharray:none;marker-end:url(#Arrow1Lend)"
       d="m 429.75644,586.68186 0,34.34519"
       id="path4684"
       inkscape:connector-curvature="0" />
    <text
       xml:space="preserve"
       style="font-size:40px;font-style:normal;font-weight:normal;line-height:125%;letter-spacing:0px;word-spacing:0px;fill:#000000;fill-opacity:1;stroke:none;font-family:Bitstream Vera Sans"
       x="241.86809"
       y="646.28088"
       id="text4870"
       sodipodi:linespacing="125%"><tspan
         sodipodi:role="line"
         id="tspan4872"
         x="241.86809"
         y="646.28088"
         style="font-size:24px">[(Xo, Yo), (Xd, Yd)]</tspan></text>
    <text
       xml:space="preserve"
       style="font-size:21.11223793px;font-style:normal;font-weight:normal;line-height:125%;letter-spacing:0px;word-spacing:0px;fill:#000000;fill-opacity:1;stroke:none;font-family:Bitstream Vera Sans"
       x="137.46469"
       y="474.96503"
       id="text4874"
       sodipodi:linespacing="125%"><tspan
         sodipodi:role="line"
         id="tspan4876"
         x="137.46469"
         y="474.96503">...</tspan></text>
    <text
       sodipodi:linespacing="125%"
       id="text4878"
       y="324.79492"
       x="137.96977"
       style="font-size:21.11223793px;font-style:normal;font-weight:normal;line-height:125%;letter-spacing:0px;word-spacing:0px;fill:#000000;fill-opacity:1;stroke:none;font-family:Bitstream Vera Sans"
       xml:space="preserve"><tspan
         y="324.79492"
         x="137.96977"
         id="tspan4880"
         sodipodi:role="line">...</tspan></text>
  </g>
</svg>
