<?xml version="1.0" encoding="UTF-8" standalone="no"?>
<!-- Created with Inkscape (http://www.inkscape.org/) -->

<svg
   xmlns:dc="http://purl.org/dc/elements/1.1/"
   xmlns:cc="http://creativecommons.org/ns#"
   xmlns:rdf="http://www.w3.org/1999/02/22-rdf-syntax-ns#"
   xmlns:svg="http://www.w3.org/2000/svg"
   xmlns="http://www.w3.org/2000/svg"
   xmlns:sodipodi="http://sodipodi.sourceforge.net/DTD/sodipodi-0.dtd"
   xmlns:inkscape="http://www.inkscape.org/namespaces/inkscape"
   width="744.09448819"
   height="1052.3622047"
   id="svg2"
   version="1.1"
   inkscape:version="0.48.1 r9760"
   sodipodi:docname="Nou document 1">
  <defs
     id="defs4" />
  <sodipodi:namedview
     id="base"
     pagecolor="#ffffff"
     bordercolor="#666666"
     borderopacity="1.0"
     inkscape:pageopacity="0.0"
     inkscape:pageshadow="2"
     inkscape:zoom="1.4"
     inkscape:cx="336.51386"
     inkscape:cy="553.64968"
     inkscape:document-units="px"
     inkscape:current-layer="capa1"
     showgrid="false"
     inkscape:window-width="1680"
     inkscape:window-height="1002"
     inkscape:window-x="-2"
     inkscape:window-y="25"
     inkscape:window-maximized="1" />
  <metadata
     id="metadata7">
    <rdf:RDF>
      <cc:Work
         rdf:about="">
        <dc:format>image/svg+xml</dc:format>
        <dc:type
           rdf:resource="http://purl.org/dc/dcmitype/StillImage" />
        <dc:title></dc:title>
      </cc:Work>
    </rdf:RDF>
  </metadata>
  <g
     inkscape:label="Capa 1"
     inkscape:groupmode="layer"
     id="capa1">
    <path
       style="fill:#000000"
       d="m 198.35716,527.05283 c 0,-0.71018 1.60792,-4.18787 27.40412,-59.27105 9.12774,-19.49065 16.59588,-36.03315 16.59588,-36.76111 0,-2.05712 -16.89389,-35.30136 -17.93926,-35.30136 -0.51048,0 -4.3821,4.8375 -8.6036,10.75 -4.2215,5.9125 -8.38734,11.3125 -9.25743,12 -1.10477,0.87294 -6.06406,1.25 -16.4405,1.25 -18.78792,0 -21.78759,-1.21839 -21.7439,-8.83179 0.0182,-3.16571 0.66385,-4.22241 3.9572,-6.47617 1.97609,-1.35233 4.82388,-1.69204 14.18419,-1.69204 l 11.71168,0 12.59052,-17.90249 c 6.92478,-9.84637 13.29119,-18.17137 14.14759,-18.5 0.8564,-0.32863 16.93278,-0.58156 35.7253,-0.56207 25.91883,0.0269 34.72771,0.34587 36.48559,1.32124 2.70852,1.50283 24.15589,37.14581 24.17189,40.17081 0.0196,3.71402 -2.79816,6.47251 -6.61172,6.47251 -1.92997,0 -4.30155,-0.42414 -5.27018,-0.94254 -0.96863,-0.51839 -5.77654,-7.49213 -10.68426,-15.49719 l -8.92311,-14.55466 -12.75,-0.003 c -7.0125,-0.001 -12.75,0.22819 -12.75,0.51052 0,0.28233 3.21238,6.91983 7.13862,14.75 11.05881,22.05476 11.25304,22.78432 16.70224,62.73667 l 1.70491,12.5 23.70151,0.5 c 22.04745,0.46511 23.83345,0.63957 25.59209,2.5 2.10647,2.22838 11.16063,15.20485 11.16063,15.99547 0,1.12284 -73.91331,0.50115 -76.42402,-0.6428 -3.45793,-1.57554 -4.06715,-4.17123 -6.71315,-28.60267 -2.81936,-26.03213 -3.13992,-26.32647 -10.89099,-10 -5.46196,11.50481 -13.51465,28.31869 -27.77803,58 l -8.04923,16.75 -11.07229,0 c -6.08976,0 -11.07229,-0.29991 -11.07229,-0.66648 z M 221.14852,360.7309 c -7.45584,-2.24751 -12.79136,-9.50816 -12.79136,-17.40665 0,-5.60929 1.3769,-9.3119 4.81362,-12.94422 3.93465,-4.15858 7.44686,-5.66072 13.23559,-5.66072 8.90711,0 15.61528,4.81043 18.05262,12.94554 4.15405,13.86497 -9.38635,27.26339 -23.31047,23.06605 z"
       id="path3007"
       inkscape:connector-curvature="0" />
  </g>
</svg>
