<?xml version="1.0" encoding="UTF-8" standalone="no"?>
<!-- Created with Inkscape (http://www.inkscape.org/) -->

<svg
   xmlns:dc="http://purl.org/dc/elements/1.1/"
   xmlns:cc="http://creativecommons.org/ns#"
   xmlns:rdf="http://www.w3.org/1999/02/22-rdf-syntax-ns#"
   xmlns:svg="http://www.w3.org/2000/svg"
   xmlns="http://www.w3.org/2000/svg"
   xmlns:sodipodi="http://sodipodi.sourceforge.net/DTD/sodipodi-0.dtd"
   xmlns:inkscape="http://www.inkscape.org/namespaces/inkscape"
   width="744.09448819"
   height="1052.3622047"
   id="svg2"
   version="1.1"
   inkscape:version="0.48.1 r9760"
   sodipodi:docname="man-running.svg">
  <defs
     id="defs4" />
  <sodipodi:namedview
     id="base"
     pagecolor="#ffffff"
     bordercolor="#666666"
     borderopacity="1.0"
     inkscape:pageopacity="0.0"
     inkscape:pageshadow="2"
     inkscape:zoom="1.4"
     inkscape:cx="336.51386"
     inkscape:cy="553.64968"
     inkscape:document-units="px"
     inkscape:current-layer="capa1"
     showgrid="false"
     inkscape:window-width="1680"
     inkscape:window-height="1002"
     inkscape:window-x="-2"
     inkscape:window-y="25"
     inkscape:window-maximized="1" />
  <metadata
     id="metadata7">
    <rdf:RDF>
      <cc:Work
         rdf:about="">
        <dc:format>image/svg+xml</dc:format>
        <dc:type
           rdf:resource="http://purl.org/dc/dcmitype/StillImage" />
        <dc:title></dc:title>
      </cc:Work>
    </rdf:RDF>
  </metadata>
  <g
     inkscape:label="Capa 1"
     inkscape:groupmode="layer"
     id="capa1">
    <path
       style="fill:#000000"
       d="m 367.5099,581.58994 c -1.17313,-0.95027 -2.63563,-2.71068 -3.25,-3.91202 -0.79239,-1.54944 -1.11704,-23.2743 -1.11704,-74.75 0,-71.89907 -0.0184,-72.56574 -2,-72.56574 -1.95226,0 -2,0.66667 -2,27.92742 l 0,27.92742 -2.63486,2.07258 c -3.56633,2.80527 -7.87417,2.65446 -10.91059,-0.38197 l -2.45455,-2.45454 0.01,-32.79546 c 0.01,-32.30462 0.0449,-32.87089 2.3571,-37.83632 2.51006,-5.39031 7.13434,-9.92461 12.35101,-12.11067 2.41543,-1.0122 9.59289,-1.34846 28.78322,-1.34846 25.24746,0 25.62635,0.0309 30.4701,2.48542 2.69761,1.36699 6.04883,3.98539 7.44714,5.81867 5.27309,6.91338 5.58163,9.33823 5.58163,43.86709 l 0,31.91973 -2.45455,2.45454 c -3.24779,3.2478 -8.39206,3.31118 -11.37114,0.1401 -2.12433,-2.26125 -2.17431,-2.95091 -2.17431,-30 0,-27.01888 -0.0482,-27.68555 -2,-27.68555 -1.98188,0 -2,0.66667 -2,73.57692 l 0,73.57693 -2.92308,2.92307 c -4.14753,4.14754 -10.67185,4.15002 -15.31114,0.006 l -3.26578,-2.91744 -0.28024,-44.08274 c -0.23881,-37.56507 -0.49307,-44.08274 -1.71976,-44.08274 -1.22669,0 -1.48095,6.51767 -1.71976,44.08274 l -0.28024,44.08274 -3.26578,2.91726 c -3.87012,3.45712 -10.35211,3.99234 -13.86718,1.14502 z M 380.76763,395.9383 c -2.13138,-0.7846 -5.38541,-2.89026 -7.23117,-4.67924 -11.59727,-11.24052 -3.2495,-31.18259 13.05306,-31.18259 14.01561,0 22.72165,14.04368 16.57606,26.73878 -3.82709,7.90571 -14.21304,12.13608 -22.39795,9.12305 z"
       id="path3039"
       inkscape:connector-curvature="0" />
  </g>
</svg>
