<?xml version="1.0" encoding="UTF-8" standalone="no"?>
<!-- Created with Inkscape (http://www.inkscape.org/) -->

<svg
   xmlns:dc="http://purl.org/dc/elements/1.1/"
   xmlns:cc="http://creativecommons.org/ns#"
   xmlns:rdf="http://www.w3.org/1999/02/22-rdf-syntax-ns#"
   xmlns:svg="http://www.w3.org/2000/svg"
   xmlns="http://www.w3.org/2000/svg"
   xmlns:sodipodi="http://sodipodi.sourceforge.net/DTD/sodipodi-0.dtd"
   xmlns:inkscape="http://www.inkscape.org/namespaces/inkscape"
   width="1052.3622"
   height="744.09448"
   id="svg2"
   version="1.1"
   inkscape:version="0.48.1 r9760"
   sodipodi:docname="maxCapaDepenentDeRuta.svg">
  <defs
     id="defs4" />
  <sodipodi:namedview
     id="base"
     pagecolor="#ffffff"
     bordercolor="#666666"
     borderopacity="1.0"
     inkscape:pageopacity="0.0"
     inkscape:pageshadow="2"
     inkscape:zoom="0.98994949"
     inkscape:cx="353.04766"
     inkscape:cy="399.69413"
     inkscape:document-units="px"
     inkscape:current-layer="capa1"
     showgrid="false"
     inkscape:window-width="1680"
     inkscape:window-height="1002"
     inkscape:window-x="-2"
     inkscape:window-y="25"
     inkscape:window-maximized="1" />
  <metadata
     id="metadata7">
    <rdf:RDF>
      <cc:Work
         rdf:about="">
        <dc:format>image/svg+xml</dc:format>
        <dc:type
           rdf:resource="http://purl.org/dc/dcmitype/StillImage" />
        <dc:title />
      </cc:Work>
    </rdf:RDF>
  </metadata>
  <g
     inkscape:label="Capa 1"
     inkscape:groupmode="layer"
     id="capa1"
     transform="translate(0,-308.2677)">
    <g
       id="capa1-4"
       inkscape:label="Capa 1"
       transform="matrix(0.6904612,0,0,0.6904612,620.72592,610.75122)">
      <path
         inkscape:connector-curvature="0"
         id="path3071"
         d="m 374.22661,506.90353 c -12.80254,-4.56473 -16.94865,-22.05789 -7.41497,-31.28503 11.46198,-11.09342 28.70074,-6.55771 32.73851,8.61387 2.52397,9.48358 -3.33788,20.1232 -12.61875,22.90381 -5.15034,1.54308 -7.86383,1.49339 -12.70479,-0.23265 z m -155.90764,-1.6107 c -12.36475,-6.52745 -12.97053,-25.33877 -1.06216,-32.98358 4.37614,-2.80937 5.4242,-3.05885 11.50824,-2.73945 5.66562,0.29742 7.27822,0.81852 10.5,3.39299 2.0935,1.67288 4.59317,4.5846 5.55482,6.47049 2.13798,4.19283 2.32518,13.9302 0.34083,17.72856 -1.89416,3.6257 -6.45575,7.83374 -9.90438,9.13672 -4.49077,1.69673 -12.74682,1.20649 -16.93735,-1.00573 z m -31.4785,-22.68065 c -1.09971,-3.93238 -0.57422,-14.97452 0.96369,-20.25 2.09848,-7.1984 4.51326,-7.92651 29.95588,-9.03235 11.72126,-0.50946 23.26386,-1.39684 25.65022,-1.97197 7.79162,-1.87781 12.37941,-5.06174 25.31431,-17.56811 7.01071,-6.77844 14.00676,-12.9617 15.5468,-13.74058 1.91648,-0.96927 10.202,-1.81079 26.25702,-2.6668 34.0172,-1.81371 54.90226,-0.0467 62.96751,5.32747 1.96654,1.31037 6.6272,5.20365 10.35703,8.65173 3.72983,3.44808 8.45483,7.5826 10.5,9.18782 2.04517,1.60521 7.44183,6.58675 11.99257,11.07007 8.69933,8.57044 14.22592,17.49763 14.22592,22.97937 0,3.45443 -4.40613,8.32521 -8.44891,9.33988 -3.78034,0.94881 -6.40656,-0.77702 -11.05109,-7.26226 -5.00123,-6.98331 -9.4821,-10.00914 -16.83519,-11.36844 -11.4614,-2.11875 -21.35131,3.60313 -24.95778,14.43952 l -1.3694,4.11465 -41.13851,0.87203 c -22.62619,0.47961 -46.68575,0.55207 -53.4657,0.16102 l -12.32719,-0.71101 -1.71903,-4.84004 c -1.13934,-3.2079 -3.22774,-6.16807 -6.19306,-8.77825 -13.09468,-11.52639 -32.34486,-6.00727 -36.77125,10.54251 l -1.1377,4.25374 -8.77354,0 c -8.71804,0 -8.77841,-0.0174 -9.5426,-2.75 z m 137.51173,-43 0.28078,-12.25 -3.28078,-0.10008 c -22.77775,-0.69487 -37.78206,2.53105 -46.96014,10.09639 -3.87823,3.19677 -9.82064,11.48051 -9.82064,13.69002 0,1.10041 5.38169,1.29552 29.75,1.07855 l 29.75,-0.26488 0.28078,-12.25 z m 52.54254,10.91263 3.82331,-0.66263 -2.8245,-5.40218 c -3.29887,-6.30946 -9.82981,-11.32553 -17.69088,-13.58742 -6.52471,-1.87738 -17.61441,-3.46506 -24.38125,-3.49059 l -5.25,-0.0198 0,12.64734 0,12.64735 21.25,-0.73471 c 11.6875,-0.40409 22.97049,-1.0329 25.07332,-1.39735 z"
         style="fill:#000000" />
    </g>
    <g
       id="capa1-8"
       inkscape:label="Capa 1"
       transform="matrix(0.4031517,0,0,0.4031517,710.29213,639.43001)"
       style="fill:#ff0000">
      <path
         inkscape:connector-curvature="0"
         id="path3039"
         d="m 367.5099,581.58994 c -1.17313,-0.95027 -2.63563,-2.71068 -3.25,-3.91202 -0.79239,-1.54944 -1.11704,-23.2743 -1.11704,-74.75 0,-71.89907 -0.0184,-72.56574 -2,-72.56574 -1.95226,0 -2,0.66667 -2,27.92742 l 0,27.92742 -2.63486,2.07258 c -3.56633,2.80527 -7.87417,2.65446 -10.91059,-0.38197 l -2.45455,-2.45454 0.01,-32.79546 c 0.01,-32.30462 0.0449,-32.87089 2.3571,-37.83632 2.51006,-5.39031 7.13434,-9.92461 12.35101,-12.11067 2.41543,-1.0122 9.59289,-1.34846 28.78322,-1.34846 25.24746,0 25.62635,0.0309 30.4701,2.48542 2.69761,1.36699 6.04883,3.98539 7.44714,5.81867 5.27309,6.91338 5.58163,9.33823 5.58163,43.86709 l 0,31.91973 -2.45455,2.45454 c -3.24779,3.2478 -8.39206,3.31118 -11.37114,0.1401 -2.12433,-2.26125 -2.17431,-2.95091 -2.17431,-30 0,-27.01888 -0.0482,-27.68555 -2,-27.68555 -1.98188,0 -2,0.66667 -2,73.57692 l 0,73.57693 -2.92308,2.92307 c -4.14753,4.14754 -10.67185,4.15002 -15.31114,0.006 l -3.26578,-2.91744 -0.28024,-44.08274 c -0.23881,-37.56507 -0.49307,-44.08274 -1.71976,-44.08274 -1.22669,0 -1.48095,6.51767 -1.71976,44.08274 l -0.28024,44.08274 -3.26578,2.91726 c -3.87012,3.45712 -10.35211,3.99234 -13.86718,1.14502 z M 380.76763,395.9383 c -2.13138,-0.7846 -5.38541,-2.89026 -7.23117,-4.67924 -11.59727,-11.24052 -3.2495,-31.18259 13.05306,-31.18259 14.01561,0 22.72165,14.04368 16.57606,26.73878 -3.82709,7.90571 -14.21304,12.13608 -22.39795,9.12305 z"
         style="fill:#ff0000" />
    </g>
    <g
       transform="matrix(0.6904612,0,0,0.6904612,412.76111,611.80798)"
       inkscape:label="Capa 1"
       id="g3001">
      <path
         style="fill:#000000"
         d="m 374.22661,506.90353 c -12.80254,-4.56473 -16.94865,-22.05789 -7.41497,-31.28503 11.46198,-11.09342 28.70074,-6.55771 32.73851,8.61387 2.52397,9.48358 -3.33788,20.1232 -12.61875,22.90381 -5.15034,1.54308 -7.86383,1.49339 -12.70479,-0.23265 z m -155.90764,-1.6107 c -12.36475,-6.52745 -12.97053,-25.33877 -1.06216,-32.98358 4.37614,-2.80937 5.4242,-3.05885 11.50824,-2.73945 5.66562,0.29742 7.27822,0.81852 10.5,3.39299 2.0935,1.67288 4.59317,4.5846 5.55482,6.47049 2.13798,4.19283 2.32518,13.9302 0.34083,17.72856 -1.89416,3.6257 -6.45575,7.83374 -9.90438,9.13672 -4.49077,1.69673 -12.74682,1.20649 -16.93735,-1.00573 z m -31.4785,-22.68065 c -1.09971,-3.93238 -0.57422,-14.97452 0.96369,-20.25 2.09848,-7.1984 4.51326,-7.92651 29.95588,-9.03235 11.72126,-0.50946 23.26386,-1.39684 25.65022,-1.97197 7.79162,-1.87781 12.37941,-5.06174 25.31431,-17.56811 7.01071,-6.77844 14.00676,-12.9617 15.5468,-13.74058 1.91648,-0.96927 10.202,-1.81079 26.25702,-2.6668 34.0172,-1.81371 54.90226,-0.0467 62.96751,5.32747 1.96654,1.31037 6.6272,5.20365 10.35703,8.65173 3.72983,3.44808 8.45483,7.5826 10.5,9.18782 2.04517,1.60521 7.44183,6.58675 11.99257,11.07007 8.69933,8.57044 14.22592,17.49763 14.22592,22.97937 0,3.45443 -4.40613,8.32521 -8.44891,9.33988 -3.78034,0.94881 -6.40656,-0.77702 -11.05109,-7.26226 -5.00123,-6.98331 -9.4821,-10.00914 -16.83519,-11.36844 -11.4614,-2.11875 -21.35131,3.60313 -24.95778,14.43952 l -1.3694,4.11465 -41.13851,0.87203 c -22.62619,0.47961 -46.68575,0.55207 -53.4657,0.16102 l -12.32719,-0.71101 -1.71903,-4.84004 c -1.13934,-3.2079 -3.22774,-6.16807 -6.19306,-8.77825 -13.09468,-11.52639 -32.34486,-6.00727 -36.77125,10.54251 l -1.1377,4.25374 -8.77354,0 c -8.71804,0 -8.77841,-0.0174 -9.5426,-2.75 z m 137.51173,-43 0.28078,-12.25 -3.28078,-0.10008 c -22.77775,-0.69487 -37.78206,2.53105 -46.96014,10.09639 -3.87823,3.19677 -9.82064,11.48051 -9.82064,13.69002 0,1.10041 5.38169,1.29552 29.75,1.07855 l 29.75,-0.26488 0.28078,-12.25 z m 52.54254,10.91263 3.82331,-0.66263 -2.8245,-5.40218 c -3.29887,-6.30946 -9.82981,-11.32553 -17.69088,-13.58742 -6.52471,-1.87738 -17.61441,-3.46506 -24.38125,-3.49059 l -5.25,-0.0198 0,12.64734 0,12.64735 21.25,-0.73471 c 11.6875,-0.40409 22.97049,-1.0329 25.07332,-1.39735 z"
         id="path3003"
         inkscape:connector-curvature="0" />
    </g>
    <g
       id="g3005"
       inkscape:label="Capa 1"
       transform="matrix(0.6904612,0,0,0.6904612,-48.551325,610.4295)">
      <path
         inkscape:connector-curvature="0"
         id="path3007"
         d="m 374.22661,506.90353 c -12.80254,-4.56473 -16.94865,-22.05789 -7.41497,-31.28503 11.46198,-11.09342 28.70074,-6.55771 32.73851,8.61387 2.52397,9.48358 -3.33788,20.1232 -12.61875,22.90381 -5.15034,1.54308 -7.86383,1.49339 -12.70479,-0.23265 z m -155.90764,-1.6107 c -12.36475,-6.52745 -12.97053,-25.33877 -1.06216,-32.98358 4.37614,-2.80937 5.4242,-3.05885 11.50824,-2.73945 5.66562,0.29742 7.27822,0.81852 10.5,3.39299 2.0935,1.67288 4.59317,4.5846 5.55482,6.47049 2.13798,4.19283 2.32518,13.9302 0.34083,17.72856 -1.89416,3.6257 -6.45575,7.83374 -9.90438,9.13672 -4.49077,1.69673 -12.74682,1.20649 -16.93735,-1.00573 z m -31.4785,-22.68065 c -1.09971,-3.93238 -0.57422,-14.97452 0.96369,-20.25 2.09848,-7.1984 4.51326,-7.92651 29.95588,-9.03235 11.72126,-0.50946 23.26386,-1.39684 25.65022,-1.97197 7.79162,-1.87781 12.37941,-5.06174 25.31431,-17.56811 7.01071,-6.77844 14.00676,-12.9617 15.5468,-13.74058 1.91648,-0.96927 10.202,-1.81079 26.25702,-2.6668 34.0172,-1.81371 54.90226,-0.0467 62.96751,5.32747 1.96654,1.31037 6.6272,5.20365 10.35703,8.65173 3.72983,3.44808 8.45483,7.5826 10.5,9.18782 2.04517,1.60521 7.44183,6.58675 11.99257,11.07007 8.69933,8.57044 14.22592,17.49763 14.22592,22.97937 0,3.45443 -4.40613,8.32521 -8.44891,9.33988 -3.78034,0.94881 -6.40656,-0.77702 -11.05109,-7.26226 -5.00123,-6.98331 -9.4821,-10.00914 -16.83519,-11.36844 -11.4614,-2.11875 -21.35131,3.60313 -24.95778,14.43952 l -1.3694,4.11465 -41.13851,0.87203 c -22.62619,0.47961 -46.68575,0.55207 -53.4657,0.16102 l -12.32719,-0.71101 -1.71903,-4.84004 c -1.13934,-3.2079 -3.22774,-6.16807 -6.19306,-8.77825 -13.09468,-11.52639 -32.34486,-6.00727 -36.77125,10.54251 l -1.1377,4.25374 -8.77354,0 c -8.71804,0 -8.77841,-0.0174 -9.5426,-2.75 z m 137.51173,-43 0.28078,-12.25 -3.28078,-0.10008 c -22.77775,-0.69487 -37.78206,2.53105 -46.96014,10.09639 -3.87823,3.19677 -9.82064,11.48051 -9.82064,13.69002 0,1.10041 5.38169,1.29552 29.75,1.07855 l 29.75,-0.26488 0.28078,-12.25 z m 52.54254,10.91263 3.82331,-0.66263 -2.8245,-5.40218 c -3.29887,-6.30946 -9.82981,-11.32553 -17.69088,-13.58742 -6.52471,-1.87738 -17.61441,-3.46506 -24.38125,-3.49059 l -5.25,-0.0198 0,12.64734 0,12.64735 21.25,-0.73471 c 11.6875,-0.40409 22.97049,-1.0329 25.07332,-1.39735 z"
         style="fill:#000000" />
    </g>
    <path
       style="fill:#000000;fill-opacity:1;fill-rule:nonzero;stroke:none"
       id="path3019"
       d="m 887.65027,864.50711 c 3.33487,1.60573 6.60261,3.34935 9.83786,5.14603 3.61982,2.35869 7.25404,4.72836 10.56878,7.51007 1.77883,1.49278 2.04999,1.81838 3.60157,3.35596 1.05137,1.34522 2.41678,3.00178 1.58374,4.81074 -0.35854,0.77855 -1.17508,1.51277 -1.74087,2.10172 -1.87096,1.67805 -3.70262,3.46993 -5.8417,4.80986 -1.26813,0.69919 -2.51519,1.43804 -3.80439,2.09756 -0.21678,0.11089 -0.46669,0.13914 -0.70053,0.20703 -0.58752,0.17056 -1.17344,0.31947 -1.77163,0.44665 0,0 2.9522,-2.24379 2.9522,-2.24379 l 0,0 c 0.58098,-0.13127 1.15873,-0.27175 1.72554,-0.45689 1.42892,-0.46673 1.52931,-0.75464 -1.81423,1.26274 0.253,-0.13957 0.5176,-0.25992 0.759,-0.41872 0.2819,-0.18544 0.53931,-0.40568 0.80684,-0.61131 1.52334,-1.17084 3.00163,-2.40402 4.39711,-3.72544 0.7929,-0.79493 1.96119,-1.6752 2.10668,-2.89463 0.16169,-1.35514 -0.93256,-2.5655 -1.60786,-3.58296 -1.45867,-1.5514 -1.7387,-1.92057 -3.45091,-3.4018 -3.26642,-2.82576 -6.93748,-5.12729 -10.57632,-7.43339 -3.32122,-1.7615 -6.67503,-3.47364 -10.13534,-4.94849 0,0 3.10446,-2.03094 3.10446,-2.03094 z"
       inkscape:connector-curvature="0" />
    <path
       style="fill:#000000;fill-opacity:1;fill-rule:nonzero;stroke:none"
       id="path3021"
       d="m 897.08606,888.21483 c -0.55683,0.83666 -1.09498,1.68658 -1.65488,2.52133 -0.72083,1.0449 -1.47481,2.06207 -2.13576,3.14701 -0.56144,0.94235 -1.03058,1.92798 -1.37262,2.96964 -0.13332,0.45684 -0.24137,0.93976 -0.24886,1.41819 -0.0187,0.47922 -0.0345,0.68589 0.30751,1.04295 0.67515,0.51184 1.52832,0.88891 2.37231,1.00259 0.35831,0.0483 0.72193,0.0409 1.0829,0.0614 3.93587,-0.004 7.87109,-0.0666 11.80708,-0.0331 1.32907,-0.016 2.65685,0.0279 3.98575,0.0287 0,0 -2.94573,2.13293 -2.94573,2.13293 l 0,0 c -1.28879,-0.0417 -2.5766,-0.11135 -3.86647,-0.11375 -3.97506,-0.0716 -7.94703,0.0316 -11.92116,0.0917 -0.38469,-0.0296 -0.77254,-0.0315 -1.15408,-0.0889 -0.91868,-0.13832 -1.84676,-0.53954 -2.55754,-1.13592 -0.34967,-0.37714 -0.53255,-0.74083 -0.45059,-1.26463 -0.0529,-0.51909 0.0953,-1.05705 0.21482,-1.55732 0.35929,-1.0651 0.80474,-2.0876 1.37429,-3.06004 0.64988,-1.09532 1.38247,-2.12721 2.1181,-3.16491 0.57146,-0.80161 1.04964,-1.66769 1.61896,-2.47061 0,0 3.42597,-1.52717 3.42597,-1.52717 z"
       inkscape:connector-curvature="0" />
    <g
       transform="matrix(0.4031517,0,0,0.4031517,506.52304,641.95539)"
       inkscape:label="Capa 1"
       id="g3023"
       style="fill:#000080">
      <path
         style="fill:#000080"
         d="m 367.5099,581.58994 c -1.17313,-0.95027 -2.63563,-2.71068 -3.25,-3.91202 -0.79239,-1.54944 -1.11704,-23.2743 -1.11704,-74.75 0,-71.89907 -0.0184,-72.56574 -2,-72.56574 -1.95226,0 -2,0.66667 -2,27.92742 l 0,27.92742 -2.63486,2.07258 c -3.56633,2.80527 -7.87417,2.65446 -10.91059,-0.38197 l -2.45455,-2.45454 0.01,-32.79546 c 0.01,-32.30462 0.0449,-32.87089 2.3571,-37.83632 2.51006,-5.39031 7.13434,-9.92461 12.35101,-12.11067 2.41543,-1.0122 9.59289,-1.34846 28.78322,-1.34846 25.24746,0 25.62635,0.0309 30.4701,2.48542 2.69761,1.36699 6.04883,3.98539 7.44714,5.81867 5.27309,6.91338 5.58163,9.33823 5.58163,43.86709 l 0,31.91973 -2.45455,2.45454 c -3.24779,3.2478 -8.39206,3.31118 -11.37114,0.1401 -2.12433,-2.26125 -2.17431,-2.95091 -2.17431,-30 0,-27.01888 -0.0482,-27.68555 -2,-27.68555 -1.98188,0 -2,0.66667 -2,73.57692 l 0,73.57693 -2.92308,2.92307 c -4.14753,4.14754 -10.67185,4.15002 -15.31114,0.006 l -3.26578,-2.91744 -0.28024,-44.08274 c -0.23881,-37.56507 -0.49307,-44.08274 -1.71976,-44.08274 -1.22669,0 -1.48095,6.51767 -1.71976,44.08274 l -0.28024,44.08274 -3.26578,2.91726 c -3.87012,3.45712 -10.35211,3.99234 -13.86718,1.14502 z M 380.76763,395.9383 c -2.13138,-0.7846 -5.38541,-2.89026 -7.23117,-4.67924 -11.59727,-11.24052 -3.2495,-31.18259 13.05306,-31.18259 14.01561,0 22.72165,14.04368 16.57606,26.73878 -3.82709,7.90571 -14.21304,12.13608 -22.39795,9.12305 z"
         id="path3025"
         inkscape:connector-curvature="0" />
    </g>
    <path
       inkscape:connector-curvature="0"
       d="m 683.88118,867.03249 c 3.33487,1.60573 6.60261,3.34935 9.83786,5.14603 3.61982,2.35869 7.25404,4.72836 10.56878,7.51007 1.77883,1.49278 2.04999,1.81838 3.60157,3.35596 1.05137,1.34522 2.41678,3.00178 1.58374,4.81074 -0.35854,0.77855 -1.17508,1.51277 -1.74087,2.10172 -1.87096,1.67805 -3.70262,3.46993 -5.8417,4.80986 -1.26813,0.69919 -2.51519,1.43804 -3.80439,2.09756 -0.21678,0.11089 -0.46669,0.13914 -0.70053,0.20703 -0.58752,0.17056 -1.17344,0.31947 -1.77163,0.44665 0,0 2.9522,-2.24379 2.9522,-2.24379 l 0,0 c 0.58098,-0.13127 1.15873,-0.27175 1.72554,-0.45689 1.42892,-0.46673 1.52931,-0.75464 -1.81423,1.26274 0.253,-0.13957 0.5176,-0.25992 0.759,-0.41872 0.2819,-0.18544 0.53931,-0.40568 0.80684,-0.61131 1.52334,-1.17084 3.00163,-2.40402 4.39711,-3.72544 0.7929,-0.79493 1.96119,-1.6752 2.10668,-2.89463 0.16169,-1.35514 -0.93256,-2.5655 -1.60786,-3.58296 -1.45867,-1.5514 -1.7387,-1.92057 -3.45091,-3.4018 -3.26642,-2.82576 -6.93748,-5.12729 -10.57632,-7.43339 -3.32122,-1.7615 -6.67503,-3.47364 -10.13534,-4.94849 0,0 3.10446,-2.03094 3.10446,-2.03094 z"
       id="path3027"
       style="fill:#000000;fill-opacity:1;fill-rule:nonzero;stroke:none" />
    <path
       inkscape:connector-curvature="0"
       d="m 693.31697,890.74021 c -0.55683,0.83666 -1.09498,1.68658 -1.65488,2.52133 -0.72083,1.0449 -1.47481,2.06207 -2.13576,3.14701 -0.56144,0.94235 -1.03058,1.92798 -1.37262,2.96964 -0.13332,0.45684 -0.24137,0.93976 -0.24886,1.41819 -0.0187,0.47922 -0.0345,0.68589 0.30751,1.04295 0.67515,0.51184 1.52832,0.88891 2.37231,1.00259 0.35831,0.0483 0.72193,0.0409 1.0829,0.0614 3.93587,-0.004 7.87109,-0.0666 11.80708,-0.0331 1.32907,-0.016 2.65685,0.0279 3.98575,0.0287 0,0 -2.94573,2.13293 -2.94573,2.13293 l 0,0 c -1.28879,-0.0417 -2.5766,-0.11135 -3.86647,-0.11375 -3.97506,-0.0716 -7.94703,0.0316 -11.92116,0.0917 -0.38469,-0.0296 -0.77254,-0.0315 -1.15408,-0.0889 -0.91868,-0.13832 -1.84676,-0.53954 -2.55754,-1.13592 -0.34967,-0.37714 -0.53255,-0.74083 -0.45059,-1.26463 -0.0529,-0.51909 0.0953,-1.05705 0.21482,-1.55732 0.35929,-1.0651 0.80474,-2.0876 1.37429,-3.06004 0.64988,-1.09532 1.38247,-2.12721 2.1181,-3.16491 0.57146,-0.80161 1.04964,-1.66769 1.61896,-2.47061 0,0 3.42597,-1.52717 3.42597,-1.52717 z"
       id="path3029"
       style="fill:#000000;fill-opacity:1;fill-rule:nonzero;stroke:none" />
    <g
       id="g3031"
       inkscape:label="Capa 1"
       transform="matrix(0.4031517,0,0,0.4031517,44.254305,642.42457)"
       style="fill:#008000">
      <path
         inkscape:connector-curvature="0"
         id="path3033"
         d="m 367.5099,581.58994 c -1.17313,-0.95027 -2.63563,-2.71068 -3.25,-3.91202 -0.79239,-1.54944 -1.11704,-23.2743 -1.11704,-74.75 0,-71.89907 -0.0184,-72.56574 -2,-72.56574 -1.95226,0 -2,0.66667 -2,27.92742 l 0,27.92742 -2.63486,2.07258 c -3.56633,2.80527 -7.87417,2.65446 -10.91059,-0.38197 l -2.45455,-2.45454 0.01,-32.79546 c 0.01,-32.30462 0.0449,-32.87089 2.3571,-37.83632 2.51006,-5.39031 7.13434,-9.92461 12.35101,-12.11067 2.41543,-1.0122 9.59289,-1.34846 28.78322,-1.34846 25.24746,0 25.62635,0.0309 30.4701,2.48542 2.69761,1.36699 6.04883,3.98539 7.44714,5.81867 5.27309,6.91338 5.58163,9.33823 5.58163,43.86709 l 0,31.91973 -2.45455,2.45454 c -3.24779,3.2478 -8.39206,3.31118 -11.37114,0.1401 -2.12433,-2.26125 -2.17431,-2.95091 -2.17431,-30 0,-27.01888 -0.0482,-27.68555 -2,-27.68555 -1.98188,0 -2,0.66667 -2,73.57692 l 0,73.57693 -2.92308,2.92307 c -4.14753,4.14754 -10.67185,4.15002 -15.31114,0.006 l -3.26578,-2.91744 -0.28024,-44.08274 c -0.23881,-37.56507 -0.49307,-44.08274 -1.71976,-44.08274 -1.22669,0 -1.48095,6.51767 -1.71976,44.08274 l -0.28024,44.08274 -3.26578,2.91726 c -3.87012,3.45712 -10.35211,3.99234 -13.86718,1.14502 z M 380.76763,395.9383 c -2.13138,-0.7846 -5.38541,-2.89026 -7.23117,-4.67924 -11.59727,-11.24052 -3.2495,-31.18259 13.05306,-31.18259 14.01561,0 22.72165,14.04368 16.57606,26.73878 -3.82709,7.90571 -14.21304,12.13608 -22.39795,9.12305 z"
         style="fill:#008000" />
    </g>
    <path
       style="fill:#000000;fill-opacity:1;fill-rule:nonzero;stroke:none"
       id="path3035"
       d="m 221.61245,867.50167 c 3.33487,1.60573 6.60261,3.34935 9.83786,5.14603 3.61982,2.35869 7.25404,4.72836 10.56878,7.51007 1.77883,1.49278 2.04999,1.81838 3.60157,3.35596 1.05137,1.34522 2.41678,3.00178 1.58374,4.81074 -0.35854,0.77855 -1.17508,1.51277 -1.74087,2.10172 -1.87096,1.67805 -3.70262,3.46993 -5.8417,4.80986 -1.26813,0.69919 -2.51519,1.43804 -3.80439,2.09756 -0.21678,0.11089 -0.46669,0.13914 -0.70053,0.20703 -0.58752,0.17056 -1.17344,0.31947 -1.77163,0.44665 0,0 2.9522,-2.24379 2.9522,-2.24379 l 0,0 c 0.58098,-0.13127 1.15873,-0.27175 1.72554,-0.45689 1.42892,-0.46673 1.52931,-0.75464 -1.81423,1.26274 0.253,-0.13957 0.5176,-0.25992 0.759,-0.41872 0.2819,-0.18544 0.53931,-0.40568 0.80684,-0.61131 1.52334,-1.17084 3.00163,-2.40402 4.39711,-3.72544 0.7929,-0.79493 1.96119,-1.6752 2.10668,-2.89463 0.16169,-1.35514 -0.93256,-2.5655 -1.60786,-3.58296 -1.45867,-1.5514 -1.7387,-1.92057 -3.45091,-3.4018 -3.26642,-2.82576 -6.93748,-5.12729 -10.57632,-7.43339 -3.32122,-1.7615 -6.67503,-3.47364 -10.13534,-4.94849 0,0 3.10446,-2.03094 3.10446,-2.03094 z"
       inkscape:connector-curvature="0" />
    <path
       style="fill:#000000;fill-opacity:1;fill-rule:nonzero;stroke:none"
       id="path3037"
       d="m 231.04824,891.20939 c -0.55683,0.83666 -1.09498,1.68658 -1.65488,2.52133 -0.72083,1.0449 -1.47481,2.06207 -2.13576,3.14701 -0.56144,0.94235 -1.03058,1.92798 -1.37262,2.96964 -0.13332,0.45684 -0.24137,0.93976 -0.24886,1.41819 -0.0187,0.47922 -0.0345,0.68589 0.30751,1.04295 0.67515,0.51184 1.52832,0.88891 2.37231,1.00259 0.35831,0.0483 0.72193,0.0409 1.0829,0.0614 3.93587,-0.004 7.87109,-0.0666 11.80708,-0.0331 1.32907,-0.016 2.65685,0.0279 3.98575,0.0287 0,0 -2.94573,2.13293 -2.94573,2.13293 l 0,0 c -1.28879,-0.0417 -2.5766,-0.11135 -3.86647,-0.11375 -3.97506,-0.0716 -7.94703,0.0316 -11.92116,0.0917 -0.38469,-0.0296 -0.77254,-0.0315 -1.15408,-0.0889 -0.91868,-0.13832 -1.84676,-0.53954 -2.55754,-1.13592 -0.34967,-0.37714 -0.53255,-0.74083 -0.45059,-1.26463 -0.0529,-0.51909 0.0953,-1.05705 0.21482,-1.55732 0.35929,-1.0651 0.80474,-2.0876 1.37429,-3.06004 0.64988,-1.09532 1.38247,-2.12721 2.1181,-3.16491 0.57146,-0.80161 1.04964,-1.66769 1.61896,-2.47061 0,0 3.42597,-1.52717 3.42597,-1.52717 z"
       inkscape:connector-curvature="0" />
    <g
       transform="matrix(0.6904612,0,0,0.6904612,207.16296,609.00093)"
       inkscape:label="Capa 1"
       id="g3039">
      <path
         style="fill:#000000"
         d="m 374.22661,506.90353 c -12.80254,-4.56473 -16.94865,-22.05789 -7.41497,-31.28503 11.46198,-11.09342 28.70074,-6.55771 32.73851,8.61387 2.52397,9.48358 -3.33788,20.1232 -12.61875,22.90381 -5.15034,1.54308 -7.86383,1.49339 -12.70479,-0.23265 z m -155.90764,-1.6107 c -12.36475,-6.52745 -12.97053,-25.33877 -1.06216,-32.98358 4.37614,-2.80937 5.4242,-3.05885 11.50824,-2.73945 5.66562,0.29742 7.27822,0.81852 10.5,3.39299 2.0935,1.67288 4.59317,4.5846 5.55482,6.47049 2.13798,4.19283 2.32518,13.9302 0.34083,17.72856 -1.89416,3.6257 -6.45575,7.83374 -9.90438,9.13672 -4.49077,1.69673 -12.74682,1.20649 -16.93735,-1.00573 z m -31.4785,-22.68065 c -1.09971,-3.93238 -0.57422,-14.97452 0.96369,-20.25 2.09848,-7.1984 4.51326,-7.92651 29.95588,-9.03235 11.72126,-0.50946 23.26386,-1.39684 25.65022,-1.97197 7.79162,-1.87781 12.37941,-5.06174 25.31431,-17.56811 7.01071,-6.77844 14.00676,-12.9617 15.5468,-13.74058 1.91648,-0.96927 10.202,-1.81079 26.25702,-2.6668 34.0172,-1.81371 54.90226,-0.0467 62.96751,5.32747 1.96654,1.31037 6.6272,5.20365 10.35703,8.65173 3.72983,3.44808 8.45483,7.5826 10.5,9.18782 2.04517,1.60521 7.44183,6.58675 11.99257,11.07007 8.69933,8.57044 14.22592,17.49763 14.22592,22.97937 0,3.45443 -4.40613,8.32521 -8.44891,9.33988 -3.78034,0.94881 -6.40656,-0.77702 -11.05109,-7.26226 -5.00123,-6.98331 -9.4821,-10.00914 -16.83519,-11.36844 -11.4614,-2.11875 -21.35131,3.60313 -24.95778,14.43952 l -1.3694,4.11465 -41.13851,0.87203 c -22.62619,0.47961 -46.68575,0.55207 -53.4657,0.16102 l -12.32719,-0.71101 -1.71903,-4.84004 c -1.13934,-3.2079 -3.22774,-6.16807 -6.19306,-8.77825 -13.09468,-11.52639 -32.34486,-6.00727 -36.77125,10.54251 l -1.1377,4.25374 -8.77354,0 c -8.71804,0 -8.77841,-0.0174 -9.5426,-2.75 z m 137.51173,-43 0.28078,-12.25 -3.28078,-0.10008 c -22.77775,-0.69487 -37.78206,2.53105 -46.96014,10.09639 -3.87823,3.19677 -9.82064,11.48051 -9.82064,13.69002 0,1.10041 5.38169,1.29552 29.75,1.07855 l 29.75,-0.26488 0.28078,-12.25 z m 52.54254,10.91263 3.82331,-0.66263 -2.8245,-5.40218 c -3.29887,-6.30946 -9.82981,-11.32553 -17.69088,-13.58742 -6.52471,-1.87738 -17.61441,-3.46506 -24.38125,-3.49059 l -5.25,-0.0198 0,12.64734 0,12.64735 21.25,-0.73471 c 11.6875,-0.40409 22.97049,-1.0329 25.07332,-1.39735 z"
         id="path3041"
         inkscape:connector-curvature="0" />
    </g>
    <g
       transform="matrix(0.4031517,0,0,0.4031517,257.82574,655.996)"
       inkscape:label="Capa 1"
       id="g3043"
       style="fill:#ff0000">
      <path
         style="fill:#ff0000"
         d="m 367.5099,581.58994 c -1.17313,-0.95027 -2.63563,-2.71068 -3.25,-3.91202 -0.79239,-1.54944 -1.11704,-23.2743 -1.11704,-74.75 0,-71.89907 -0.0184,-72.56574 -2,-72.56574 -1.95226,0 -2,0.66667 -2,27.92742 l 0,27.92742 -2.63486,2.07258 c -3.56633,2.80527 -7.87417,2.65446 -10.91059,-0.38197 l -2.45455,-2.45454 0.01,-32.79546 c 0.01,-32.30462 0.0449,-32.87089 2.3571,-37.83632 2.51006,-5.39031 7.13434,-9.92461 12.35101,-12.11067 2.41543,-1.0122 9.59289,-1.34846 28.78322,-1.34846 25.24746,0 25.62635,0.0309 30.4701,2.48542 2.69761,1.36699 6.04883,3.98539 7.44714,5.81867 5.27309,6.91338 5.58163,9.33823 5.58163,43.86709 l 0,31.91973 -2.45455,2.45454 c -3.24779,3.2478 -8.39206,3.31118 -11.37114,0.1401 -2.12433,-2.26125 -2.17431,-2.95091 -2.17431,-30 0,-27.01888 -0.0482,-27.68555 -2,-27.68555 -1.98188,0 -2,0.66667 -2,73.57692 l 0,73.57693 -2.92308,2.92307 c -4.14753,4.14754 -10.67185,4.15002 -15.31114,0.006 l -3.26578,-2.91744 -0.28024,-44.08274 c -0.23881,-37.56507 -0.49307,-44.08274 -1.71976,-44.08274 -1.22669,0 -1.48095,6.51767 -1.71976,44.08274 l -0.28024,44.08274 -3.26578,2.91726 c -3.87012,3.45712 -10.35211,3.99234 -13.86718,1.14502 z M 380.76763,395.9383 c -2.13138,-0.7846 -5.38541,-2.89026 -7.23117,-4.67924 -11.59727,-11.24052 -3.2495,-31.18259 13.05306,-31.18259 14.01561,0 22.72165,14.04368 16.57606,26.73878 -3.82709,7.90571 -14.21304,12.13608 -22.39795,9.12305 z"
         id="path3045"
         inkscape:connector-curvature="0" />
    </g>
    <path
       inkscape:connector-curvature="0"
       d="m 382.6238,902.08276 c -2.80564,-2.41414 -5.51075,-4.94411 -8.17075,-7.51691 -2.886,-3.2152 -5.78308,-6.44473 -8.26491,-9.98957 -1.33186,-1.90231 -1.50951,-2.287 -2.61026,-4.17377 -0.66738,-1.57149 -1.55751,-3.525 -0.28467,-5.05672 0.54783,-0.65922 1.52658,-1.15709 2.22552,-1.57953 2.24152,-1.13663 4.47454,-2.39339 6.88753,-3.13403 1.40589,-0.34714 2.80168,-0.73806 4.21765,-1.04143 0.23809,-0.051 0.4868,-0.0136 0.73024,-0.0187 0.61165,-0.0127 1.21614,-0.005 1.82687,0.0271 0,0 -3.43234,1.40325 -3.43234,1.40325 l 0,0 c -0.59516,-0.0236 -1.18959,-0.0374 -1.785,-0.005 -1.50103,0.081 -1.67252,0.33311 2.07923,-0.75016 -0.2805,0.0693 -0.56723,0.1171 -0.84151,0.20801 -0.32029,0.10616 -0.62593,0.25228 -0.93756,0.38166 -1.77447,0.73667 -3.52156,1.54522 -5.2115,2.46044 -0.97163,0.56263 -2.32794,1.11053 -2.78408,2.25075 -0.50692,1.26712 0.23678,2.71945 0.62573,3.87702 1.00744,1.87607 1.18238,2.30513 2.45287,4.17905 2.42376,3.57488 5.37406,6.74813 8.29204,9.91745 2.75214,2.56108 5.54854,5.08291 8.50923,7.4031 0,0 -3.52433,1.15824 -3.52433,1.15824 z"
       id="path3047"
       style="fill:#000000;fill-opacity:1;fill-rule:nonzero;stroke:none" />
    <path
       inkscape:connector-curvature="0"
       d="m 379.64554,876.7407 c 0.7544,-0.66404 1.49419,-1.34571 2.25106,-2.00711 0.96671,-0.82273 1.95826,-1.61009 2.87749,-2.487 0.78621,-0.76493 1.49446,-1.59555 2.09445,-2.51319 0.24701,-0.40677 0.47637,-0.84527 0.60743,-1.30546 0.1421,-0.45805 0.21085,-0.65359 -0.0271,-1.087 -0.51967,-0.66914 -1.24618,-1.25418 -2.03199,-1.58242 -0.3336,-0.1394 -0.68675,-0.22636 -1.03011,-0.33959 -3.80279,-1.01481 -7.62013,-1.97286 -11.41333,-3.02392 -1.28792,-0.32854 -2.5591,-0.7146 -3.84251,-1.05931 0,0 3.3974,-1.29784 3.3974,-1.29784 l 0,0 c 1.23408,0.37384 2.45998,0.77442 3.70528,1.11059 3.82108,1.09798 7.68442,2.02632 11.53869,2.99684 0.36392,0.12816 0.73806,0.23038 1.09175,0.38457 0.85157,0.37138 1.64419,0.99913 2.17639,1.75916 0.24015,0.45479 0.32267,0.85342 0.10793,1.33816 -0.0833,0.51509 -0.36564,0.99636 -0.61056,1.44865 -0.62272,0.93582 -1.31763,1.80819 -2.11946,2.60008 -0.91123,0.8898 -1.88593,1.69692 -2.86507,2.50887 -0.75946,0.62639 -1.4455,1.33919 -2.20324,1.9674 0,0 -3.70449,0.58843 -3.70449,0.58843 z"
       id="path3049"
       style="fill:#000000;fill-opacity:1;fill-rule:nonzero;stroke:none" />
    <path
       style="fill:#008000"
       id="path3051"
       d="m 66.487969,802.76174 c 0.876923,0.54088 1.919109,0.7905 2.780169,1.35828 3.256446,2.14732 4.474559,6.18912 5.800696,9.62012 1.108263,3.90365 2.213808,7.8086 3.344321,11.70583 0.478171,1.6484 0.954287,3.58942 1.828183,5.1233 0.220521,0.38707 0.569203,0.68542 0.853805,1.02813 0.254377,0.12073 0.481687,0.37059 0.763131,0.36217 0.243123,-0.007 0.823255,-0.5168 0.608188,-0.40318 -2.771871,1.46429 -5.448078,3.11555 -8.281541,4.45679 -0.438507,0.20757 0.723608,-0.65166 1.032778,-1.02554 0.988714,-1.19567 1.755373,-2.65137 2.532452,-3.97007 8.082105,-15.39462 22.144276,-26.26975 35.285359,-37.12777 3.80479,-2.71396 7.54434,-5.52181 11.41439,-8.14189 6.68024,-4.52262 16.49428,-10.52459 23.48922,-14.61346 10.99072,-6.42458 22.00169,-12.60531 33.30155,-18.43668 3.18951,-1.54027 6.46718,-2.87049 9.81315,-4.02233 0,0 -8.23879,6.40453 -8.23879,6.40453 l 0,0 c -3.09268,1.0143 -6.12074,2.20303 -9.05768,3.6151 -9.56153,4.84742 -3.90999,1.91918 -14.86025,7.78578 -0.96575,0.5174 -1.95548,0.99167 -2.90101,1.54515 -11.94598,6.99268 -23.78475,14.22891 -34.83835,22.58822 -11.7345,9.74431 -24.386693,19.45491 -32.269456,32.81058 -0.645575,1.09379 -1.158149,2.26081 -1.737223,3.39121 -3.704453,7.01506 -3.471832,6.16852 -13.179799,11.06446 -0.305107,0.15387 -0.695656,-0.0645 -1.002248,-0.21541 -0.345755,-0.17016 -0.60185,-0.48144 -0.902775,-0.72216 -0.288754,-0.43858 -0.637876,-0.84291 -0.866263,-1.31574 -0.796786,-1.6496 -1.223512,-3.60518 -1.687334,-5.34327 -1.036781,-3.88513 -2.163242,-7.73925 -3.304926,-11.59512 -1.301522,-3.13803 -2.5116,-6.96684 -5.640971,-8.80745 -0.05226,-0.0307 -2.632999,-1.16306 -2.932043,-1.29444 0,0 8.853267,-5.82514 8.853267,-5.82514 z"
       inkscape:connector-curvature="0" />
    <g
       id="g3143"
       transform="translate(48.22846,140.4112)">
      <g
         id="g3053"
         inkscape:label="Capa 1"
         transform="matrix(0.6904612,0,0,0.6904612,574.39521,251.96354)">
        <path
           inkscape:connector-curvature="0"
           id="path3055"
           d="m 374.22661,506.90353 c -12.80254,-4.56473 -16.94865,-22.05789 -7.41497,-31.28503 11.46198,-11.09342 28.70074,-6.55771 32.73851,8.61387 2.52397,9.48358 -3.33788,20.1232 -12.61875,22.90381 -5.15034,1.54308 -7.86383,1.49339 -12.70479,-0.23265 z m -155.90764,-1.6107 c -12.36475,-6.52745 -12.97053,-25.33877 -1.06216,-32.98358 4.37614,-2.80937 5.4242,-3.05885 11.50824,-2.73945 5.66562,0.29742 7.27822,0.81852 10.5,3.39299 2.0935,1.67288 4.59317,4.5846 5.55482,6.47049 2.13798,4.19283 2.32518,13.9302 0.34083,17.72856 -1.89416,3.6257 -6.45575,7.83374 -9.90438,9.13672 -4.49077,1.69673 -12.74682,1.20649 -16.93735,-1.00573 z m -31.4785,-22.68065 c -1.09971,-3.93238 -0.57422,-14.97452 0.96369,-20.25 2.09848,-7.1984 4.51326,-7.92651 29.95588,-9.03235 11.72126,-0.50946 23.26386,-1.39684 25.65022,-1.97197 7.79162,-1.87781 12.37941,-5.06174 25.31431,-17.56811 7.01071,-6.77844 14.00676,-12.9617 15.5468,-13.74058 1.91648,-0.96927 10.202,-1.81079 26.25702,-2.6668 34.0172,-1.81371 54.90226,-0.0467 62.96751,5.32747 1.96654,1.31037 6.6272,5.20365 10.35703,8.65173 3.72983,3.44808 8.45483,7.5826 10.5,9.18782 2.04517,1.60521 7.44183,6.58675 11.99257,11.07007 8.69933,8.57044 14.22592,17.49763 14.22592,22.97937 0,3.45443 -4.40613,8.32521 -8.44891,9.33988 -3.78034,0.94881 -6.40656,-0.77702 -11.05109,-7.26226 -5.00123,-6.98331 -9.4821,-10.00914 -16.83519,-11.36844 -11.4614,-2.11875 -21.35131,3.60313 -24.95778,14.43952 l -1.3694,4.11465 -41.13851,0.87203 c -22.62619,0.47961 -46.68575,0.55207 -53.4657,0.16102 l -12.32719,-0.71101 -1.71903,-4.84004 c -1.13934,-3.2079 -3.22774,-6.16807 -6.19306,-8.77825 -13.09468,-11.52639 -32.34486,-6.00727 -36.77125,10.54251 l -1.1377,4.25374 -8.77354,0 c -8.71804,0 -8.77841,-0.0174 -9.5426,-2.75 z m 137.51173,-43 0.28078,-12.25 -3.28078,-0.10008 c -22.77775,-0.69487 -37.78206,2.53105 -46.96014,10.09639 -3.87823,3.19677 -9.82064,11.48051 -9.82064,13.69002 0,1.10041 5.38169,1.29552 29.75,1.07855 l 29.75,-0.26488 0.28078,-12.25 z m 52.54254,10.91263 3.82331,-0.66263 -2.8245,-5.40218 c -3.29887,-6.30946 -9.82981,-11.32553 -17.69088,-13.58742 -6.52471,-1.87738 -17.61441,-3.46506 -24.38125,-3.49059 l -5.25,-0.0198 0,12.64734 0,12.64735 21.25,-0.73471 c 11.6875,-0.40409 22.97049,-1.0329 25.07332,-1.39735 z"
           style="fill:#000000" />
      </g>
      <g
         id="g3057"
         inkscape:label="Capa 1"
         transform="matrix(0.4031517,0,0,0.4031517,663.96142,280.64233)"
         style="fill:#ff0000">
        <path
           inkscape:connector-curvature="0"
           id="path3059"
           d="m 367.5099,581.58994 c -1.17313,-0.95027 -2.63563,-2.71068 -3.25,-3.91202 -0.79239,-1.54944 -1.11704,-23.2743 -1.11704,-74.75 0,-71.89907 -0.0184,-72.56574 -2,-72.56574 -1.95226,0 -2,0.66667 -2,27.92742 l 0,27.92742 -2.63486,2.07258 c -3.56633,2.80527 -7.87417,2.65446 -10.91059,-0.38197 l -2.45455,-2.45454 0.01,-32.79546 c 0.01,-32.30462 0.0449,-32.87089 2.3571,-37.83632 2.51006,-5.39031 7.13434,-9.92461 12.35101,-12.11067 2.41543,-1.0122 9.59289,-1.34846 28.78322,-1.34846 25.24746,0 25.62635,0.0309 30.4701,2.48542 2.69761,1.36699 6.04883,3.98539 7.44714,5.81867 5.27309,6.91338 5.58163,9.33823 5.58163,43.86709 l 0,31.91973 -2.45455,2.45454 c -3.24779,3.2478 -8.39206,3.31118 -11.37114,0.1401 -2.12433,-2.26125 -2.17431,-2.95091 -2.17431,-30 0,-27.01888 -0.0482,-27.68555 -2,-27.68555 -1.98188,0 -2,0.66667 -2,73.57692 l 0,73.57693 -2.92308,2.92307 c -4.14753,4.14754 -10.67185,4.15002 -15.31114,0.006 l -3.26578,-2.91744 -0.28024,-44.08274 c -0.23881,-37.56507 -0.49307,-44.08274 -1.71976,-44.08274 -1.22669,0 -1.48095,6.51767 -1.71976,44.08274 l -0.28024,44.08274 -3.26578,2.91726 c -3.87012,3.45712 -10.35211,3.99234 -13.86718,1.14502 z M 380.76763,395.9383 c -2.13138,-0.7846 -5.38541,-2.89026 -7.23117,-4.67924 -11.59727,-11.24052 -3.2495,-31.18259 13.05306,-31.18259 14.01561,0 22.72165,14.04368 16.57606,26.73878 -3.82709,7.90571 -14.21304,12.13608 -22.39795,9.12305 z"
           style="fill:#ff0000" />
      </g>
      <path
         style="fill:#000000;fill-opacity:1;fill-rule:nonzero;stroke:none"
         id="path3069"
         d="m 841.31956,505.71943 c 3.33487,1.60573 6.60261,3.34935 9.83786,5.14603 3.61982,2.35869 7.25404,4.72836 10.56878,7.51007 1.77883,1.49278 2.04999,1.81838 3.60157,3.35596 1.05137,1.34522 2.41678,3.00178 1.58374,4.81074 -0.35854,0.77855 -1.17508,1.51277 -1.74087,2.10172 -1.87096,1.67805 -3.70262,3.46993 -5.8417,4.80986 -1.26813,0.69919 -2.51519,1.43804 -3.80439,2.09756 -0.21678,0.11089 -0.46669,0.13914 -0.70053,0.20703 -0.58752,0.17056 -1.17344,0.31947 -1.77163,0.44665 0,0 2.9522,-2.24379 2.9522,-2.24379 l 0,0 c 0.58098,-0.13127 1.15873,-0.27175 1.72554,-0.45689 1.42892,-0.46673 1.52931,-0.75464 -1.81423,1.26274 0.253,-0.13957 0.5176,-0.25992 0.759,-0.41872 0.2819,-0.18544 0.53931,-0.40568 0.80684,-0.61131 1.52334,-1.17084 3.00163,-2.40402 4.39711,-3.72544 0.7929,-0.79493 1.96119,-1.6752 2.10668,-2.89463 0.16169,-1.35514 -0.93256,-2.5655 -1.60786,-3.58296 -1.45867,-1.5514 -1.7387,-1.92057 -3.45091,-3.4018 -3.26642,-2.82576 -6.93748,-5.12729 -10.57632,-7.43339 -3.32122,-1.7615 -6.67503,-3.47364 -10.13534,-4.94849 0,0 3.10446,-2.03094 3.10446,-2.03094 z"
         inkscape:connector-curvature="0" />
      <path
         style="fill:#000000;fill-opacity:1;fill-rule:nonzero;stroke:none"
         id="path3072"
         d="m 850.75535,529.42715 c -0.55683,0.83666 -1.09498,1.68658 -1.65488,2.52133 -0.72083,1.0449 -1.47481,2.06207 -2.13576,3.14701 -0.56144,0.94235 -1.03058,1.92798 -1.37262,2.96964 -0.13332,0.45684 -0.24137,0.93976 -0.24886,1.41819 -0.0187,0.47922 -0.0345,0.68589 0.30751,1.04295 0.67515,0.51184 1.52832,0.88891 2.37231,1.00259 0.35831,0.0483 0.72193,0.0409 1.0829,0.0614 3.93587,-0.004 7.87109,-0.0666 11.80708,-0.0331 1.32907,-0.016 2.65685,0.0279 3.98575,0.0287 0,0 -2.94573,2.13293 -2.94573,2.13293 l 0,0 c -1.28879,-0.0417 -2.5766,-0.11135 -3.86647,-0.11375 -3.97506,-0.0716 -7.94703,0.0316 -11.92116,0.0917 -0.38469,-0.0296 -0.77254,-0.0315 -1.15408,-0.0889 -0.91868,-0.13832 -1.84676,-0.53954 -2.55754,-1.13592 -0.34967,-0.37714 -0.53255,-0.74083 -0.45059,-1.26463 -0.0529,-0.51909 0.0953,-1.05705 0.21482,-1.55732 0.35929,-1.0651 0.80474,-2.0876 1.37429,-3.06004 0.64988,-1.09532 1.38247,-2.12721 2.1181,-3.16491 0.57146,-0.80161 1.04964,-1.66769 1.61896,-2.47061 0,0 3.42597,-1.52717 3.42597,-1.52717 z"
         inkscape:connector-curvature="0" />
    </g>
    <path
       style="fill:#ff0000"
       id="path3104"
       d="m 271.57349,582.0179 c 3.3786,6.39372 6.53516,12.90009 10.22121,19.12967 1.31197,2.21728 2.71413,4.37993 4.0712,6.5699 1.5742,2.38414 3.11379,4.7915 4.72261,7.15242 1.76606,2.59169 3.52192,5.19306 5.40104,7.70398 8.01808,10.71388 17.14184,20.50658 26.30721,30.22774 7.0497,7.17277 14.28004,14.17561 22.21239,20.36786 1.4196,1.05688 2.89043,2.04523 4.50572,2.77514 0,0 -8.85357,5.83077 -8.85357,5.83077 l 0,0 c -1.60138,-0.85764 -3.07737,-1.90376 -4.44534,-3.10232 -7.52413,-6.58789 -14.44612,-13.81118 -21.32251,-21.06549 -13.18477,-14.2602 -26.31735,-28.62765 -36.76222,-45.08871 -3.59034,-5.50446 -7.11429,-11.03781 -10.33511,-16.77013 -0.6729,-1.1976 -1.25563,-2.44426 -1.92462,-3.64404 -1.09834,-1.96983 -1.78838,-2.99949 -2.93639,-4.79023 0,0 9.13838,-5.29656 9.13838,-5.29656 z"
       inkscape:connector-curvature="0" />
    <path
       style="fill:#ff0000"
       id="path3106"
       d="m 348.02179,601.77367 c -3.13762,5.60778 -7.11874,10.77325 -11.51577,15.45423 -1.34648,1.43343 -2.78215,2.78039 -4.17322,4.17059 -1.66678,1.46506 -3.25443,3.02539 -5.00034,4.39519 -2.89008,2.26747 -10.38828,7.19123 -13.25066,9.29006 -7.27433,5.33389 -14.02246,11.24811 -20.72132,17.27211 -9.94453,9.38179 -18.18102,20.30587 -25.05201,32.08283 -3.2651,5.60999 -7.86693,10.14138 -12.56114,14.53239 -0.37568,0.337 -0.75135,0.67401 -1.12702,1.01101 0,0 -9.71051,3.94086 -9.71051,3.94086 l 0,0 c 0.39966,-0.33437 0.79932,-0.66875 1.19898,-1.00313 4.81061,-4.40563 9.69275,-8.78539 13.10268,-14.44087 7.09157,-11.90424 15.412,-23.04353 25.50847,-32.5957 6.65122,-6.02635 13.35119,-11.99054 20.57156,-17.34143 0.3348,-0.24812 12.41666,-8.6031 13.04671,-9.09187 1.71941,-1.33387 3.27828,-2.86272 4.91743,-4.29407 1.36755,-1.35543 2.78187,-2.66525 4.10265,-4.06629 4.2346,-4.4919 8.17175,-9.48027 11.03453,-14.95946 0,0 9.62898,-4.35645 9.62898,-4.35645 z"
       inkscape:connector-curvature="0" />
    <g
       id="g3131"
       transform="translate(70.22846,140.4112)">
      <g
         transform="matrix(0.6904612,0,0,0.6904612,344.4304,253.0203)"
         inkscape:label="Capa 1"
         id="g3061">
        <path
           style="fill:#000000"
           d="m 374.22661,506.90353 c -12.80254,-4.56473 -16.94865,-22.05789 -7.41497,-31.28503 11.46198,-11.09342 28.70074,-6.55771 32.73851,8.61387 2.52397,9.48358 -3.33788,20.1232 -12.61875,22.90381 -5.15034,1.54308 -7.86383,1.49339 -12.70479,-0.23265 z m -155.90764,-1.6107 c -12.36475,-6.52745 -12.97053,-25.33877 -1.06216,-32.98358 4.37614,-2.80937 5.4242,-3.05885 11.50824,-2.73945 5.66562,0.29742 7.27822,0.81852 10.5,3.39299 2.0935,1.67288 4.59317,4.5846 5.55482,6.47049 2.13798,4.19283 2.32518,13.9302 0.34083,17.72856 -1.89416,3.6257 -6.45575,7.83374 -9.90438,9.13672 -4.49077,1.69673 -12.74682,1.20649 -16.93735,-1.00573 z m -31.4785,-22.68065 c -1.09971,-3.93238 -0.57422,-14.97452 0.96369,-20.25 2.09848,-7.1984 4.51326,-7.92651 29.95588,-9.03235 11.72126,-0.50946 23.26386,-1.39684 25.65022,-1.97197 7.79162,-1.87781 12.37941,-5.06174 25.31431,-17.56811 7.01071,-6.77844 14.00676,-12.9617 15.5468,-13.74058 1.91648,-0.96927 10.202,-1.81079 26.25702,-2.6668 34.0172,-1.81371 54.90226,-0.0467 62.96751,5.32747 1.96654,1.31037 6.6272,5.20365 10.35703,8.65173 3.72983,3.44808 8.45483,7.5826 10.5,9.18782 2.04517,1.60521 7.44183,6.58675 11.99257,11.07007 8.69933,8.57044 14.22592,17.49763 14.22592,22.97937 0,3.45443 -4.40613,8.32521 -8.44891,9.33988 -3.78034,0.94881 -6.40656,-0.77702 -11.05109,-7.26226 -5.00123,-6.98331 -9.4821,-10.00914 -16.83519,-11.36844 -11.4614,-2.11875 -21.35131,3.60313 -24.95778,14.43952 l -1.3694,4.11465 -41.13851,0.87203 c -22.62619,0.47961 -46.68575,0.55207 -53.4657,0.16102 l -12.32719,-0.71101 -1.71903,-4.84004 c -1.13934,-3.2079 -3.22774,-6.16807 -6.19306,-8.77825 -13.09468,-11.52639 -32.34486,-6.00727 -36.77125,10.54251 l -1.1377,4.25374 -8.77354,0 c -8.71804,0 -8.77841,-0.0174 -9.5426,-2.75 z m 137.51173,-43 0.28078,-12.25 -3.28078,-0.10008 c -22.77775,-0.69487 -37.78206,2.53105 -46.96014,10.09639 -3.87823,3.19677 -9.82064,11.48051 -9.82064,13.69002 0,1.10041 5.38169,1.29552 29.75,1.07855 l 29.75,-0.26488 0.28078,-12.25 z m 52.54254,10.91263 3.82331,-0.66263 -2.8245,-5.40218 c -3.29887,-6.30946 -9.82981,-11.32553 -17.69088,-13.58742 -6.52471,-1.87738 -17.61441,-3.46506 -24.38125,-3.49059 l -5.25,-0.0198 0,12.64734 0,12.64735 21.25,-0.73471 c 11.6875,-0.40409 22.97049,-1.0329 25.07332,-1.39735 z"
           id="path3063"
           inkscape:connector-curvature="0" />
      </g>
      <g
         transform="matrix(0.4031517,0,0,0.4031517,438.19233,283.16771)"
         inkscape:label="Capa 1"
         id="g3074"
         style="fill:#000080">
        <path
           style="fill:#000080"
           d="m 367.5099,581.58994 c -1.17313,-0.95027 -2.63563,-2.71068 -3.25,-3.91202 -0.79239,-1.54944 -1.11704,-23.2743 -1.11704,-74.75 0,-71.89907 -0.0184,-72.56574 -2,-72.56574 -1.95226,0 -2,0.66667 -2,27.92742 l 0,27.92742 -2.63486,2.07258 c -3.56633,2.80527 -7.87417,2.65446 -10.91059,-0.38197 l -2.45455,-2.45454 0.01,-32.79546 c 0.01,-32.30462 0.0449,-32.87089 2.3571,-37.83632 2.51006,-5.39031 7.13434,-9.92461 12.35101,-12.11067 2.41543,-1.0122 9.59289,-1.34846 28.78322,-1.34846 25.24746,0 25.62635,0.0309 30.4701,2.48542 2.69761,1.36699 6.04883,3.98539 7.44714,5.81867 5.27309,6.91338 5.58163,9.33823 5.58163,43.86709 l 0,31.91973 -2.45455,2.45454 c -3.24779,3.2478 -8.39206,3.31118 -11.37114,0.1401 -2.12433,-2.26125 -2.17431,-2.95091 -2.17431,-30 0,-27.01888 -0.0482,-27.68555 -2,-27.68555 -1.98188,0 -2,0.66667 -2,73.57692 l 0,73.57693 -2.92308,2.92307 c -4.14753,4.14754 -10.67185,4.15002 -15.31114,0.006 l -3.26578,-2.91744 -0.28024,-44.08274 c -0.23881,-37.56507 -0.49307,-44.08274 -1.71976,-44.08274 -1.22669,0 -1.48095,6.51767 -1.71976,44.08274 l -0.28024,44.08274 -3.26578,2.91726 c -3.87012,3.45712 -10.35211,3.99234 -13.86718,1.14502 z M 380.76763,395.9383 c -2.13138,-0.7846 -5.38541,-2.89026 -7.23117,-4.67924 -11.59727,-11.24052 -3.2495,-31.18259 13.05306,-31.18259 14.01561,0 22.72165,14.04368 16.57606,26.73878 -3.82709,7.90571 -14.21304,12.13608 -22.39795,9.12305 z"
           id="path3076"
           inkscape:connector-curvature="0" />
      </g>
      <path
         inkscape:connector-curvature="0"
         d="m 615.55047,508.24481 c 3.33487,1.60573 6.60261,3.34935 9.83786,5.14603 3.61982,2.35869 7.25404,4.72836 10.56878,7.51007 1.77883,1.49278 2.04999,1.81838 3.60157,3.35596 1.05137,1.34522 2.41678,3.00178 1.58374,4.81074 -0.35854,0.77855 -1.17508,1.51277 -1.74087,2.10172 -1.87096,1.67805 -3.70262,3.46993 -5.8417,4.80986 -1.26813,0.69919 -2.51519,1.43804 -3.80439,2.09756 -0.21678,0.11089 -0.46669,0.13914 -0.70053,0.20703 -0.58752,0.17056 -1.17344,0.31947 -1.77163,0.44665 0,0 2.9522,-2.24379 2.9522,-2.24379 l 0,0 c 0.58098,-0.13127 1.15873,-0.27175 1.72554,-0.45689 1.42892,-0.46673 1.52931,-0.75464 -1.81423,1.26274 0.253,-0.13957 0.5176,-0.25992 0.759,-0.41872 0.2819,-0.18544 0.53931,-0.40568 0.80684,-0.61131 1.52334,-1.17084 3.00163,-2.40402 4.39711,-3.72544 0.7929,-0.79493 1.96119,-1.6752 2.10668,-2.89463 0.16169,-1.35514 -0.93256,-2.5655 -1.60786,-3.58296 -1.45867,-1.5514 -1.7387,-1.92057 -3.45091,-3.4018 -3.26642,-2.82576 -6.93748,-5.12729 -10.57632,-7.43339 -3.32122,-1.7615 -6.67503,-3.47364 -10.13534,-4.94849 0,0 3.10446,-2.03094 3.10446,-2.03094 z"
         id="path3078"
         style="fill:#000000;fill-opacity:1;fill-rule:nonzero;stroke:none" />
      <path
         inkscape:connector-curvature="0"
         d="m 624.98626,531.95253 c -0.55683,0.83666 -1.09498,1.68658 -1.65488,2.52133 -0.72083,1.0449 -1.47481,2.06207 -2.13576,3.14701 -0.56144,0.94235 -1.03058,1.92798 -1.37262,2.96964 -0.13332,0.45684 -0.24137,0.93976 -0.24886,1.41819 -0.0187,0.47922 -0.0345,0.68589 0.30751,1.04295 0.67515,0.51184 1.52832,0.88891 2.37231,1.00259 0.35831,0.0483 0.72193,0.0409 1.0829,0.0614 3.93587,-0.004 7.87109,-0.0666 11.80708,-0.0331 1.32907,-0.016 2.65685,0.0279 3.98575,0.0287 0,0 -2.94573,2.13293 -2.94573,2.13293 l 0,0 c -1.28879,-0.0417 -2.5766,-0.11135 -3.86647,-0.11375 -3.97506,-0.0716 -7.94703,0.0316 -11.92116,0.0917 -0.38469,-0.0296 -0.77254,-0.0315 -1.15408,-0.0889 -0.91868,-0.13832 -1.84676,-0.53954 -2.55754,-1.13592 -0.34967,-0.37714 -0.53255,-0.74083 -0.45059,-1.26463 -0.0529,-0.51909 0.0953,-1.05705 0.21482,-1.55732 0.35929,-1.0651 0.80474,-2.0876 1.37429,-3.06004 0.64988,-1.09532 1.38247,-2.12721 2.1181,-3.16491 0.57146,-0.80161 1.04964,-1.66769 1.61896,-2.47061 0,0 3.42597,-1.52717 3.42597,-1.52717 z"
         id="path3080"
         style="fill:#000000;fill-opacity:1;fill-rule:nonzero;stroke:none" />
      <g
         style="fill:#000080"
         id="g3108"
         inkscape:label="Capa 1"
         transform="matrix(0.4031517,0,0,0.4031517,438.19233,283.16771)">
        <path
           inkscape:connector-curvature="0"
           id="path3110"
           d="m 367.5099,581.58994 c -1.17313,-0.95027 -2.63563,-2.71068 -3.25,-3.91202 -0.79239,-1.54944 -1.11704,-23.2743 -1.11704,-74.75 0,-71.89907 -0.0184,-72.56574 -2,-72.56574 -1.95226,0 -2,0.66667 -2,27.92742 l 0,27.92742 -2.63486,2.07258 c -3.56633,2.80527 -7.87417,2.65446 -10.91059,-0.38197 l -2.45455,-2.45454 0.01,-32.79546 c 0.01,-32.30462 0.0449,-32.87089 2.3571,-37.83632 2.51006,-5.39031 7.13434,-9.92461 12.35101,-12.11067 2.41543,-1.0122 9.59289,-1.34846 28.78322,-1.34846 25.24746,0 25.62635,0.0309 30.4701,2.48542 2.69761,1.36699 6.04883,3.98539 7.44714,5.81867 5.27309,6.91338 5.58163,9.33823 5.58163,43.86709 l 0,31.91973 -2.45455,2.45454 c -3.24779,3.2478 -8.39206,3.31118 -11.37114,0.1401 -2.12433,-2.26125 -2.17431,-2.95091 -2.17431,-30 0,-27.01888 -0.0482,-27.68555 -2,-27.68555 -1.98188,0 -2,0.66667 -2,73.57692 l 0,73.57693 -2.92308,2.92307 c -4.14753,4.14754 -10.67185,4.15002 -15.31114,0.006 l -3.26578,-2.91744 -0.28024,-44.08274 c -0.23881,-37.56507 -0.49307,-44.08274 -1.71976,-44.08274 -1.22669,0 -1.48095,6.51767 -1.71976,44.08274 l -0.28024,44.08274 -3.26578,2.91726 c -3.87012,3.45712 -10.35211,3.99234 -13.86718,1.14502 z M 380.76763,395.9383 c -2.13138,-0.7846 -5.38541,-2.89026 -7.23117,-4.67924 -11.59727,-11.24052 -3.2495,-31.18259 13.05306,-31.18259 14.01561,0 22.72165,14.04368 16.57606,26.73878 -3.82709,7.90571 -14.21304,12.13608 -22.39795,9.12305 z"
           style="fill:#000080" />
      </g>
      <path
         style="fill:#000000;fill-opacity:1;fill-rule:nonzero;stroke:none"
         id="path3112"
         d="m 615.55047,508.24481 c 3.33487,1.60573 6.60261,3.34935 9.83786,5.14603 3.61982,2.35869 7.25404,4.72836 10.56878,7.51007 1.77883,1.49278 2.04999,1.81838 3.60157,3.35596 1.05137,1.34522 2.41678,3.00178 1.58374,4.81074 -0.35854,0.77855 -1.17508,1.51277 -1.74087,2.10172 -1.87096,1.67805 -3.70262,3.46993 -5.8417,4.80986 -1.26813,0.69919 -2.51519,1.43804 -3.80439,2.09756 -0.21678,0.11089 -0.46669,0.13914 -0.70053,0.20703 -0.58752,0.17056 -1.17344,0.31947 -1.77163,0.44665 0,0 2.9522,-2.24379 2.9522,-2.24379 l 0,0 c 0.58098,-0.13127 1.15873,-0.27175 1.72554,-0.45689 1.42892,-0.46673 1.52931,-0.75464 -1.81423,1.26274 0.253,-0.13957 0.5176,-0.25992 0.759,-0.41872 0.2819,-0.18544 0.53931,-0.40568 0.80684,-0.61131 1.52334,-1.17084 3.00163,-2.40402 4.39711,-3.72544 0.7929,-0.79493 1.96119,-1.6752 2.10668,-2.89463 0.16169,-1.35514 -0.93256,-2.5655 -1.60786,-3.58296 -1.45867,-1.5514 -1.7387,-1.92057 -3.45091,-3.4018 -3.26642,-2.82576 -6.93748,-5.12729 -10.57632,-7.43339 -3.32122,-1.7615 -6.67503,-3.47364 -10.13534,-4.94849 0,0 3.10446,-2.03094 3.10446,-2.03094 z"
         inkscape:connector-curvature="0" />
      <path
         style="fill:#000000;fill-opacity:1;fill-rule:nonzero;stroke:none"
         id="path3114"
         d="m 624.98626,531.95253 c -0.55683,0.83666 -1.09498,1.68658 -1.65488,2.52133 -0.72083,1.0449 -1.47481,2.06207 -2.13576,3.14701 -0.56144,0.94235 -1.03058,1.92798 -1.37262,2.96964 -0.13332,0.45684 -0.24137,0.93976 -0.24886,1.41819 -0.0187,0.47922 -0.0345,0.68589 0.30751,1.04295 0.67515,0.51184 1.52832,0.88891 2.37231,1.00259 0.35831,0.0483 0.72193,0.0409 1.0829,0.0614 3.93587,-0.004 7.87109,-0.0666 11.80708,-0.0331 1.32907,-0.016 2.65685,0.0279 3.98575,0.0287 0,0 -2.94573,2.13293 -2.94573,2.13293 l 0,0 c -1.28879,-0.0417 -2.5766,-0.11135 -3.86647,-0.11375 -3.97506,-0.0716 -7.94703,0.0316 -11.92116,0.0917 -0.38469,-0.0296 -0.77254,-0.0315 -1.15408,-0.0889 -0.91868,-0.13832 -1.84676,-0.53954 -2.55754,-1.13592 -0.34967,-0.37714 -0.53255,-0.74083 -0.45059,-1.26463 -0.0529,-0.51909 0.0953,-1.05705 0.21482,-1.55732 0.35929,-1.0651 0.80474,-2.0876 1.37429,-3.06004 0.64988,-1.09532 1.38247,-2.12721 2.1181,-3.16491 0.57146,-0.80161 1.04964,-1.66769 1.61896,-2.47061 0,0 3.42597,-1.52717 3.42597,-1.52717 z"
         inkscape:connector-curvature="0" />
    </g>
    <g
       id="g3090"
       inkscape:label="Capa 1"
       transform="matrix(0.6904612,0,0,0.6904612,209.06071,390.62445)">
      <path
         inkscape:connector-curvature="0"
         id="path3092"
         d="m 374.22661,506.90353 c -12.80254,-4.56473 -16.94865,-22.05789 -7.41497,-31.28503 11.46198,-11.09342 28.70074,-6.55771 32.73851,8.61387 2.52397,9.48358 -3.33788,20.1232 -12.61875,22.90381 -5.15034,1.54308 -7.86383,1.49339 -12.70479,-0.23265 z m -155.90764,-1.6107 c -12.36475,-6.52745 -12.97053,-25.33877 -1.06216,-32.98358 4.37614,-2.80937 5.4242,-3.05885 11.50824,-2.73945 5.66562,0.29742 7.27822,0.81852 10.5,3.39299 2.0935,1.67288 4.59317,4.5846 5.55482,6.47049 2.13798,4.19283 2.32518,13.9302 0.34083,17.72856 -1.89416,3.6257 -6.45575,7.83374 -9.90438,9.13672 -4.49077,1.69673 -12.74682,1.20649 -16.93735,-1.00573 z m -31.4785,-22.68065 c -1.09971,-3.93238 -0.57422,-14.97452 0.96369,-20.25 2.09848,-7.1984 4.51326,-7.92651 29.95588,-9.03235 11.72126,-0.50946 23.26386,-1.39684 25.65022,-1.97197 7.79162,-1.87781 12.37941,-5.06174 25.31431,-17.56811 7.01071,-6.77844 14.00676,-12.9617 15.5468,-13.74058 1.91648,-0.96927 10.202,-1.81079 26.25702,-2.6668 34.0172,-1.81371 54.90226,-0.0467 62.96751,5.32747 1.96654,1.31037 6.6272,5.20365 10.35703,8.65173 3.72983,3.44808 8.45483,7.5826 10.5,9.18782 2.04517,1.60521 7.44183,6.58675 11.99257,11.07007 8.69933,8.57044 14.22592,17.49763 14.22592,22.97937 0,3.45443 -4.40613,8.32521 -8.44891,9.33988 -3.78034,0.94881 -6.40656,-0.77702 -11.05109,-7.26226 -5.00123,-6.98331 -9.4821,-10.00914 -16.83519,-11.36844 -11.4614,-2.11875 -21.35131,3.60313 -24.95778,14.43952 l -1.3694,4.11465 -41.13851,0.87203 c -22.62619,0.47961 -46.68575,0.55207 -53.4657,0.16102 l -12.32719,-0.71101 -1.71903,-4.84004 c -1.13934,-3.2079 -3.22774,-6.16807 -6.19306,-8.77825 -13.09468,-11.52639 -32.34486,-6.00727 -36.77125,10.54251 l -1.1377,4.25374 -8.77354,0 c -8.71804,0 -8.77841,-0.0174 -9.5426,-2.75 z m 137.51173,-43 0.28078,-12.25 -3.28078,-0.10008 c -22.77775,-0.69487 -37.78206,2.53105 -46.96014,10.09639 -3.87823,3.19677 -9.82064,11.48051 -9.82064,13.69002 0,1.10041 5.38169,1.29552 29.75,1.07855 l 29.75,-0.26488 0.28078,-12.25 z m 52.54254,10.91263 3.82331,-0.66263 -2.8245,-5.40218 c -3.29887,-6.30946 -9.82981,-11.32553 -17.69088,-13.58742 -6.52471,-1.87738 -17.61441,-3.46506 -24.38125,-3.49059 l -5.25,-0.0198 0,12.64734 0,12.64735 21.25,-0.73471 c 11.6875,-0.40409 22.97049,-1.0329 25.07332,-1.39735 z"
         style="fill:#000000" />
    </g>
    <path
       style="fill:#008000"
       d="m 457.15446,664.47645 c -0.47295,-0.3831 -1.06256,-1.09281 -1.31024,-1.57713 -0.31946,-0.62466 -0.45034,-9.38308 -0.45034,-30.13559 0,-28.98624 -0.007,-29.25501 -0.8063,-29.25501 -0.78706,0 -0.80631,0.26877 -0.80631,11.25899 l 0,11.25899 -1.06224,0.83556 c -1.43778,1.13095 -3.17449,1.07015 -4.39863,-0.15399 l -0.98955,-0.98955 0.004,-13.22155 c 0.004,-13.02366 0.0181,-13.25195 0.95027,-15.25377 1.01193,-2.17312 2.87622,-4.00113 4.97933,-4.88244 0.97378,-0.40807 3.86739,-0.54363 11.604,-0.54363 10.17856,0 10.33131,0.0125 12.28408,1.002 1.08754,0.5511 2.43859,1.60671 3.00232,2.3458 2.12586,2.78714 2.25025,3.76473 2.25025,17.6851 l 0,12.86849 -0.98956,0.98955 c -1.30935,1.30936 -3.38327,1.33491 -4.58429,0.0565 -0.85643,-0.91162 -0.87658,-1.18966 -0.87658,-12.09455 0,-10.89271 -0.0194,-11.16148 -0.8063,-11.16148 -0.799,0 -0.80631,0.26877 -0.80631,29.66266 l 0,29.66267 -1.17844,1.17844 c -1.67209,1.67209 -4.30238,1.67309 -6.17271,0.002 l -1.31661,-1.17617 -0.11298,-17.77203 c -0.0963,-15.14443 -0.19878,-17.77204 -0.69332,-17.77204 -0.49455,0 -0.59705,2.62761 -0.69333,17.77204 l -0.11298,17.77203 -1.3166,1.1761 c -1.56025,1.39374 -4.17347,1.60951 -5.59058,0.46161 z m 5.34488,-74.84577 c -0.85927,-0.31631 -2.17114,-1.16521 -2.91526,-1.88644 -4.67546,-4.53164 -1.31004,-12.57132 5.26236,-12.57132 5.65042,0 9.16027,5.66173 6.68267,10.77979 -1.5429,3.1872 -5.73001,4.89268 -9.02977,3.67797 z"
       id="path3118"
       inkscape:connector-curvature="0" />
    <path
       style="fill:#000000;fill-opacity:1;fill-rule:nonzero;stroke:none"
       id="path3120"
       d="m 486.35036,655.08458 c 3.33487,1.60573 6.60261,3.34935 9.83786,5.14603 3.61982,2.35869 7.25404,4.72836 10.56878,7.51007 1.77883,1.49278 2.04999,1.81838 3.60157,3.35596 1.05137,1.34522 2.41678,3.00178 1.58374,4.81074 -0.35854,0.77855 -1.17508,1.51277 -1.74087,2.10172 -1.87096,1.67805 -3.70262,3.46993 -5.8417,4.80986 -1.26813,0.69919 -2.51519,1.43804 -3.80439,2.09756 -0.21678,0.11089 -0.46669,0.13914 -0.70053,0.20703 -0.58752,0.17056 -1.17344,0.31947 -1.77163,0.44665 0,0 2.9522,-2.24379 2.9522,-2.24379 l 0,0 c 0.58098,-0.13127 1.15873,-0.27175 1.72554,-0.45689 1.42892,-0.46673 1.52931,-0.75464 -1.81423,1.26274 0.253,-0.13957 0.5176,-0.25992 0.759,-0.41872 0.2819,-0.18544 0.53931,-0.40568 0.80684,-0.61131 1.52334,-1.17084 3.00163,-2.40402 4.39711,-3.72544 0.7929,-0.79493 1.96119,-1.6752 2.10668,-2.89463 0.16169,-1.35514 -0.93256,-2.5655 -1.60786,-3.58296 -1.45867,-1.5514 -1.7387,-1.92057 -3.45091,-3.4018 -3.26642,-2.82576 -6.93748,-5.12729 -10.57632,-7.43339 -3.32122,-1.7615 -6.67503,-3.47364 -10.13534,-4.94849 0,0 3.10446,-2.03094 3.10446,-2.03094 z"
       inkscape:connector-curvature="0" />
    <path
       style="fill:#000000;fill-opacity:1;fill-rule:nonzero;stroke:none"
       id="path3122"
       d="m 495.78615,678.7923 c -0.55683,0.83666 -1.09498,1.68658 -1.65488,2.52133 -0.72083,1.0449 -1.47481,2.06207 -2.13576,3.14701 -0.56144,0.94235 -1.03058,1.92798 -1.37262,2.96964 -0.13332,0.45684 -0.24137,0.93976 -0.24886,1.41819 -0.0187,0.47922 -0.0345,0.68589 0.30751,1.04295 0.67515,0.51184 1.52832,0.88891 2.37231,1.00259 0.35831,0.0483 0.72193,0.0409 1.0829,0.0614 3.93587,-0.004 7.87109,-0.0666 11.80708,-0.0331 1.32907,-0.016 2.65685,0.0279 3.98575,0.0287 0,0 -2.94573,2.13293 -2.94573,2.13293 l 0,0 c -1.28879,-0.0417 -2.5766,-0.11135 -3.86647,-0.11375 -3.97506,-0.0716 -7.94703,0.0316 -11.92116,0.0917 -0.38469,-0.0296 -0.77254,-0.0315 -1.15408,-0.0889 -0.91868,-0.13832 -1.84676,-0.53954 -2.55754,-1.13592 -0.34967,-0.37714 -0.53255,-0.74083 -0.45059,-1.26463 -0.0529,-0.51909 0.0953,-1.05705 0.21482,-1.55732 0.35929,-1.0651 0.80474,-2.0876 1.37429,-3.06004 0.64988,-1.09532 1.38247,-2.12721 2.1181,-3.16491 0.57146,-0.80161 1.04964,-1.66769 1.61896,-2.47061 0,0 3.42597,-1.52717 3.42597,-1.52717 z"
       inkscape:connector-curvature="0" />
    <path
       sodipodi:nodetypes="sssss"
       style="fill:#000080"
       d="m 442.24319,702.43706 c -0.85927,-0.31631 -2.17114,-1.16521 -2.91526,-1.88644 -4.67546,-4.53164 -1.31004,-12.57132 5.26236,-12.57132 5.65042,0 9.16027,5.66173 6.68267,10.77979 -1.5429,3.1872 -5.73001,4.89268 -9.02977,3.67797 z"
       id="path3159"
       inkscape:connector-curvature="0" />
    <path
       inkscape:connector-curvature="0"
       id="path3161"
       d="m 457.2432,702.43707 c -0.85927,-0.31631 -2.17114,-1.16521 -2.91526,-1.88644 -4.67546,-4.53164 -1.31004,-12.57132 5.26236,-12.57132 5.65042,0 9.16027,5.66173 6.68267,10.77979 -1.5429,3.1872 -5.73001,4.89268 -9.02977,3.67797 z"
       style="fill:#ff0000"
       sodipodi:nodetypes="sssss" />
    <path
       sodipodi:nodetypes="sssss"
       style="fill:#ff0000"
       d="m 655.2432,705.29421 c -0.85927,-0.31631 -2.17114,-1.16521 -2.91526,-1.88644 -4.67546,-4.53164 -1.31004,-12.57132 5.26236,-12.57132 5.65042,0 9.16027,5.66173 6.68267,10.77979 -1.5429,3.1872 -5.73001,4.89268 -9.02977,3.67797 z"
       id="path3163"
       inkscape:connector-curvature="0" />
    <path
       sodipodi:nodetypes="sssss"
       style="fill:#000000"
       d="m 619.52892,704.57993 c -0.85927,-0.31631 -2.17114,-1.16521 -2.91526,-1.88644 -4.67546,-4.53164 -1.31004,-12.57132 5.26236,-12.57132 5.65042,0 9.16027,5.66173 6.68267,10.77979 -1.5429,3.1872 -5.73001,4.89268 -9.02977,3.67797 z"
       id="path3165"
       inkscape:connector-curvature="0" />
    <path
       inkscape:connector-curvature="0"
       id="path3167"
       d="m 828.95749,703.86564 c -0.85927,-0.31631 -2.17114,-1.16521 -2.91526,-1.88644 -4.67546,-4.53164 -1.31004,-12.57132 5.26236,-12.57132 5.65042,0 9.16027,5.66173 6.68267,10.77979 -1.5429,3.1872 -5.73001,4.89268 -9.02977,3.67797 z"
       style="fill:#000000"
       sodipodi:nodetypes="sssss" />
    <path
       inkscape:connector-curvature="0"
       id="path3169"
       d="m 413.67178,701.72279 c -0.85927,-0.31631 -2.17114,-1.16521 -2.91526,-1.88644 -4.67546,-4.53164 -1.31004,-12.57132 5.26236,-12.57132 5.65042,0 9.16027,5.66173 6.68267,10.77979 -1.5429,3.1872 -5.73001,4.89268 -9.02977,3.67797 z"
       style="fill:#000000"
       sodipodi:nodetypes="sssss" />
    <path
       sodipodi:nodetypes="sssss"
       style="fill:#000000"
       d="m 157.87189,922.02588 c -0.85927,-0.31631 -2.17114,-1.16521 -2.91526,-1.88644 -4.67546,-4.53164 -1.31004,-12.57132 5.26236,-12.57132 5.65042,0 9.16027,5.66173 6.68267,10.77979 -1.5429,3.1872 -5.73001,4.89268 -9.02977,3.67797 z"
       id="path3171"
       inkscape:connector-curvature="0" />
    <path
       inkscape:connector-curvature="0"
       id="path3173"
       d="m 411.44332,920.59731 c -0.85927,-0.31631 -2.17114,-1.16521 -2.91526,-1.88644 -4.67546,-4.53164 -1.31004,-12.57132 5.26236,-12.57132 5.65042,0 9.16027,5.66173 6.68267,10.77979 -1.5429,3.1872 -5.73001,4.89268 -9.02977,3.67797 z"
       style="fill:#000000"
       sodipodi:nodetypes="sssss" />
    <path
       sodipodi:nodetypes="sssss"
       style="fill:#000000"
       d="m 618.01475,923.45445 c -0.85927,-0.31631 -2.17114,-1.16521 -2.91526,-1.88644 -4.67546,-4.53164 -1.31004,-12.57132 5.26236,-12.57132 5.65042,0 9.16027,5.66173 6.68267,10.77979 -1.5429,3.1872 -5.73001,4.89268 -9.02977,3.67797 z"
       id="path3175"
       inkscape:connector-curvature="0" />
    <path
       inkscape:connector-curvature="0"
       id="path3177"
       d="m 826.72904,922.02588 c -0.85927,-0.31631 -2.17114,-1.16521 -2.91526,-1.88644 -4.67546,-4.53164 -1.31004,-12.57132 5.26236,-12.57132 5.65042,0 9.16027,5.66173 6.68267,10.77979 -1.5429,3.1872 -5.73001,4.89268 -9.02977,3.67797 z"
       style="fill:#000000"
       sodipodi:nodetypes="sssss" />
    <path
       inkscape:connector-curvature="0"
       id="path3179"
       d="m 650.15759,923.45444 c -0.85927,-0.31631 -2.17114,-1.16521 -2.91526,-1.88644 -4.67546,-4.53164 -1.31004,-12.57132 5.26236,-12.57132 5.65042,0 9.16027,5.66173 6.68267,10.77979 -1.5429,3.1872 -5.73001,4.89268 -9.02977,3.67797 z"
       style="fill:#ff0000"
       sodipodi:nodetypes="sssss" />
    <path
       sodipodi:nodetypes="sssss"
       style="fill:#000080"
       d="m 446.44331,919.88301 c -0.85927,-0.31631 -2.17114,-1.16521 -2.91526,-1.88644 -4.67546,-4.53164 -1.31004,-12.57132 5.26236,-12.57132 5.65042,0 9.16027,5.66173 6.68267,10.77979 -1.5429,3.1872 -5.73001,4.89268 -9.02977,3.67797 z"
       id="path3183"
       inkscape:connector-curvature="0" />
    <path
       sodipodi:nodetypes="sssss"
       style="fill:#ff0000"
       d="m 192.87188,922.02587 c -0.85927,-0.31631 -2.17114,-1.16521 -2.91526,-1.88644 -4.67546,-4.53164 -1.31004,-12.57132 5.26236,-12.57132 5.65042,0 9.16027,5.66173 6.68267,10.77979 -1.5429,3.1872 -5.73001,4.89268 -9.02977,3.67797 z"
       id="path3187"
       inkscape:connector-curvature="0" />
  </g>
</svg>
